<?xml version="1.0" encoding="UTF-8" standalone="no"?>
<svg
   viewBox="0 0 512 512"
   version="1.1"
   id="svg4"
   sodipodi:docname="copy.svg"
   inkscape:version="1.1.2 (b8e25be833, 2022-02-05)"
   xmlns:inkscape="http://www.inkscape.org/namespaces/inkscape"
   xmlns:sodipodi="http://sodipodi.sourceforge.net/DTD/sodipodi-0.dtd"
   xmlns="http://www.w3.org/2000/svg"
   xmlns:svg="http://www.w3.org/2000/svg">
  <defs
     id="defs8" />
  <sodipodi:namedview
     id="namedview6"
     pagecolor="#ffffff"
     bordercolor="#666666"
     borderopacity="1.0"
     inkscape:pageshadow="2"
     inkscape:pageopacity="0.0"
     inkscape:pagecheckerboard="0"
     showgrid="false"
     inkscape:zoom="0.99298784"
     inkscape:cx="310.175"
     inkscape:cy="350.45746"
     inkscape:window-width="1920"
     inkscape:window-height="1137"
     inkscape:window-x="-1928"
     inkscape:window-y="-4"
     inkscape:window-maximized="1"
     inkscape:current-layer="svg4" />
  <!--! Font Awesome Pro 6.2.0 by @fontawesome - https://fontawesome.com License - https://fontawesome.com/license (Commercial License) Copyright 2022 Fonticons, Inc. -->
  <g
     id="g935"
     transform="matrix(0.57013812,0,0,0.57013812,17.148022,60.454343)">
    <path
       style="fill:#a3aab7"
       d="m 159.34585,687.35701 c -3.575,-0.76562 -10.72082,-3.47838 -15.8796,-6.02836 C 126.61685,673 115.71861,659.5999 110.14901,640.36296 l -2.30316,-7.95493 v -205 c 0,-230.7998 -0.69664,-210.33946 7.74601,-227.5 8.06235,-16.38756 23.1845,-28.22562 42.16395,-33.00721 7.45126,-1.87723 11.29315,-1.99279 66.25,-1.99279 h 58.34004 v 43.5 43.5 h -43.5 -43.5 v 175 175 h 131 131 v -22 -22 h 44.07501 44.075 l -0.38936,37.25 c -0.3594,34.38242 -0.55547,37.8505 -2.54701,45.05048 -5.24333,18.95615 -16.45168,32.78035 -33.33404,41.11368 -16.34139,8.06631 -3.91107,7.55867 -183.3796,7.48898 -132.75085,-0.0516 -161.107,-0.29921 -166.5,-1.45416 z M 455.67382,514.15812 c 37.30538,-0.14526 98.05538,-0.14524 135,5e-5 36.94462,0.1453 6.42203,0.26415 -67.82797,0.26412 -74.25,-3e-5 -104.47741,-0.1189 -67.17203,-0.26417 z m 206.48453,-0.9332 c 0.72187,-0.28887 1.58438,-0.25335 1.91667,0.0789 0.33229,0.33229 -0.25834,0.56864 -1.3125,0.52522 -1.16495,-0.048 -1.4019,-0.28494 -0.60417,-0.60416 z m -285,-1 c 0.72187,-0.28887 1.58438,-0.25335 1.91667,0.0789 0.33229,0.33229 -0.25834,0.56864 -1.3125,0.52522 -1.16495,-0.048 -1.4019,-0.28494 -0.60417,-0.60416 z m -32.88819,-18.06689 -2.42431,-2.75 2.75,2.42431 c 2.57029,2.26589 3.20859,3.07569 2.42431,3.07569 -0.17912,0 -1.41662,-1.2375 -2.75,-2.75 z m 355.07569,2.37244 c 0,-0.20765 0.7875,-0.99515 1.75,-1.75 1.58606,-1.24387 1.62143,-1.2085 0.37756,0.37756 -1.30637,1.66575 -2.12756,2.19548 -2.12756,1.37244 z M 326.50374,453.90803 c 0,-1.375 0.22698,-1.9375 0.50439,-1.25 0.27741,0.6875 0.27741,1.8125 0,2.5 -0.27741,0.6875 -0.50439,0.125 -0.50439,-1.25 z m 393.03706,-2.5 c 0.0204,-1.65 0.2445,-2.20394 0.49804,-1.23097 0.25354,0.97297 0.23687,2.32297 -0.0371,3 -0.27393,0.67703 -0.48137,-0.11903 -0.46099,-1.76903 z m 0.0572,-308 c 0.0111,-2.2 0.21589,-2.98225 0.45508,-1.73834 0.23919,1.24391 0.23011,3.04391 -0.0202,4 -0.25029,0.95609 -0.446,-0.0617 -0.4349,-2.26166 z m -1.17323,-9.08333 c 0.048,-1.16495 0.28494,-1.4019 0.60416,-0.60417 0.28887,0.72187 0.25335,1.58437 -0.0789,1.91667 -0.33229,0.33229 -0.56864,-0.25834 -0.52522,-1.3125 z m -11.20648,-25.16667 c -1.24387,-1.58606 -1.2085,-1.62143 0.37756,-0.37756 1.66575,1.30637 2.19548,2.12756 1.37244,2.12756 -0.20765,0 -0.99515,-0.7875 -1.75,-1.75 z m -52.87615,-53.999999 -50.49629,-50.75 50.75,50.496287 c 27.9125,27.772953 50.75,50.610452 50.75,50.750002 0,0.70279 -4.06673,-3.32347 -51.00371,-50.496289 z m -327.80134,-5.75 c 0.0204,-1.65 0.2445,-2.203936 0.49804,-1.230968 0.25354,0.972967 0.23687,2.322967 -0.0371,3 -0.27388,0.677032 -0.48132,-0.119032 -0.46094,-1.769032 z m 17.80505,-40 c 1.29175,-1.375 2.57363,-2.5 2.84863,-2.5 0.275,0 -0.55688,1.125 -1.84863,2.5 -1.29175,1.375 -2.57363,2.5 -2.84863,2.5 -0.275,0 0.55688,-1.125 1.84863,-2.5 z m 227.75,-19.162281 c 0.6875,-0.277412 1.8125,-0.277412 2.5,0 0.6875,0.277413 0.125,0.504386 -1.25,0.504386 -1.375,0 -1.9375,-0.226973 -1.25,-0.504386 z m -139,-1.087461 c 24.8875,-0.148851 65.6125,-0.148851 90.5,0 24.8875,0.148851 4.525,0.270638 -45.25,0.270638 -49.775,0 -70.1375,-0.121787 -45.25,-0.270638 z"
       id="path939" />
    <path
       style="fill:#1d2f4f"
       d="m 375.84585,511.54946 c -24.24347,-6.75887 -39.71075,-22.0571 -46.69684,-46.1865 l -2.30316,-7.95493 v -205.5 -205.499999 l 2.26043,-7.799182 c 7.10828,-24.525738 23.51758,-40.505877 48.03176,-46.775547 7.16681,-1.832961 11.9671,-1.924438 100.11777,-1.907907 102.63114,0.01925 99.6426,-0.153568 113.76045,6.578275 7.62033,3.633618 9.30305,5.205684 62.959,58.818881 52.72644,52.684429 55.28677,55.412389 58.7398,62.585479 7.69781,15.99092 7.13079,1.67794 7.13079,180 v 159.5 l -2.80609,8.95866 c -7.04504,22.49185 -20.92578,36.73348 -43.19391,44.31693 l -8,2.72441 -141,0.18588 -141,0.18589 z"
       id="path937" />
  </g>
</svg>
