<?xml version="1.0" encoding="UTF-8" standalone="no"?>
<!-- Created with Inkscape (http://www.inkscape.org/) -->

<svg
   width="200mm"
   height="200mm"
   viewBox="0 0 200 200"
   version="1.1"
   id="svg5"
   inkscape:version="1.1.2 (b8e25be833, 2022-02-05)"
   sodipodi:docname="eye.svg"
   xmlns:inkscape="http://www.inkscape.org/namespaces/inkscape"
   xmlns:sodipodi="http://sodipodi.sourceforge.net/DTD/sodipodi-0.dtd"
   xmlns="http://www.w3.org/2000/svg"
   xmlns:svg="http://www.w3.org/2000/svg">
  <sodipodi:namedview
     id="namedview7"
     pagecolor="#ffffff"
     bordercolor="#666666"
     borderopacity="1.0"
     inkscape:pageshadow="2"
     inkscape:pageopacity="0.0"
     inkscape:pagecheckerboard="0"
     inkscape:document-units="mm"
     showgrid="false"
     inkscape:zoom="0.90583672"
     inkscape:cx="372.03173"
     inkscape:cy="394.11076"
     inkscape:window-width="1920"
     inkscape:window-height="1137"
     inkscape:window-x="-8"
     inkscape:window-y="-8"
     inkscape:window-maximized="1"
     inkscape:current-layer="g837"
     inkscape:snap-global="false" />
  <defs
     id="defs2" />
  <g
     inkscape:label="Шар 1"
     inkscape:groupmode="layer"
     id="layer1">
    <g
       id="g1456"
       transform="translate(-7.0100934,38.555514)">
      <g
         id="g837"
         transform="translate(16.648972,16.064797)">
        <g
           id="g950"
           transform="matrix(0.73613365,0,0,0.73613365,-6.4497915,15.146843)">
          <path
             style="fill:#a4abb8;stroke-width:0.264583"
             d="m 123.98036,121.37311 c -13.24819,-0.755 -24.764776,-3.78377 -36.139896,-9.50449 C 74.973342,105.39755 66.284796,99.083863 55.838446,88.61378 44.688899,77.438899 36.610183,66.317713 29.777858,52.738687 24.08883,41.431928 24.043009,40.321228 28.849771,30.242246 33.39144,20.719127 39.762387,10.865867 47.235897,1.8063957 50.734954,-2.435198 60.208693,-12.070699 63.91994,-15.162521 c 7.36305,-6.134124 14.752809,-10.960468 23.62649,-15.430754 7.136968,-3.595386 13.06264,-5.720959 20.63635,-7.402387 14.97581,-3.324752 29.96262,-3.141049 44.62486,0.546995 13.80382,3.472119 28.87781,11.505915 41.81646,22.286392 3.66411,3.052931 12.87055,12.415173 16.5562,16.836379 7.25785,8.706318 13.72766,18.625812 18.87388,28.937392 3.05352,6.118394 3.41286,7.163911 3.42197,9.956358 0.009,2.890134 -0.46957,4.200379 -4.15929,11.377083 -7.36468,14.324727 -15.49357,25.525894 -26.61126,36.668843 -10.86472,10.889403 -19.92432,17.36923 -33.47308,23.94143 -10.95556,5.31429 -21.80295,8.02862 -35.33029,8.84064 -4.73921,0.28449 -4.52225,0.28499 -9.92187,-0.0227 z m 13.66131,-29.33849 c 11.17244,-1.819942 21.15884,-7.059546 29.07592,-15.25537 7.49483,-7.758713 12.04755,-16.872654 14.05767,-28.141604 0.47701,-2.674226 0.47882,-13.449837 0.003,-16.139584 -1.6238,-9.173374 -4.80047,-16.557929 -10.18289,-23.6713789 -2.30904,-3.0516459 -7.25165,-7.89518779 -10.63138,-10.4182836 -3.29471,-2.4596248 -9.8311,-5.8526812 -13.75833,-7.1419852 -9.1507,-3.0041613 -19.24379,-3.5255753 -28.42234,-1.4683133 -4.26866,0.9567679 -7.26167,1.9970143 -11.28253,3.9213342 C 100.6945,-3.5017704 96.442031,-0.4351411 92.050742,4.1399545 83.679082,12.862034 78.914616,22.89388 77.520391,34.734424 c -0.385193,3.271279 -0.167476,11.617923 0.379916,14.56468 1.627145,8.759425 4.975733,16.416065 10.182828,23.283333 1.606513,2.118718 5.822008,6.440438 8.116276,8.320797 7.051709,5.779511 15.716879,9.681562 24.738539,11.140117 4.47506,0.723495 12.23387,0.719439 16.70403,-0.0087 z M 128.1572,75.16475 c 0.84206,-0.05267 2.15175,-0.05218 2.91042,0.0011 0.75867,0.05326 0.0697,0.09635 -1.53101,0.09575 -1.60073,-5.29e-4 -2.22146,-0.04417 -1.37941,-0.09684 z m -3.84612,-0.243999 c 0.18191,-0.0734 0.47956,-0.0734 0.66146,0 0.1819,0.0734 0.0331,0.133453 -0.33073,0.133453 -0.3638,0 -0.51263,-0.06006 -0.33073,-0.133453 z m 9.80612,-0.0055 c 0.191,-0.07643 0.41921,-0.06703 0.50712,0.02088 0.0879,0.08792 -0.0684,0.150453 -0.34726,0.138964 -0.30823,-0.0127 -0.37092,-0.07539 -0.15986,-0.15985 z m -11.37708,-0.264583 c 0.191,-0.07643 0.4192,-0.06703 0.50712,0.02088 0.0879,0.08792 -0.0684,0.150452 -0.34727,0.138964 -0.30822,-0.0127 -0.37091,-0.07539 -0.15985,-0.159851 z m 28.62461,-7.327498 c 0,-0.05494 0.20836,-0.2633 0.46302,-0.463021 0.41965,-0.329107 0.429,-0.319749 0.0999,0.0999 -0.34565,0.440729 -0.56292,0.580887 -0.56292,0.363124 z m -48.71708,-4.331874 c -0.32911,-0.419646 -0.31975,-0.429004 0.0999,-0.0999 0.25467,0.199721 0.46302,0.408081 0.46302,0.463021 0,0.217763 -0.21727,0.0776 -0.56291,-0.363124 z m 52.68583,0.363124 c 0,-0.05494 0.20836,-0.2633 0.46302,-0.463021 0.41965,-0.329107 0.429,-0.319749 0.0999,0.0999 -0.34565,0.440729 -0.56292,0.580887 -0.56292,0.363124 z m 7.95839,-16.45861 c 0.0127,-0.308226 0.0754,-0.370919 0.15985,-0.159853 0.0764,0.190995 0.067,0.4192 -0.0209,0.507119 -0.0879,0.08792 -0.15045,-0.06835 -0.13896,-0.347266 z M 94.764787,46.10206 c 0.0127,-0.308226 0.07539,-0.370919 0.15985,-0.159853 0.07643,0.190995 0.06703,0.4192 -0.02088,0.507119 -0.08792,0.08792 -0.150453,-0.06835 -0.138965,-0.347266 z m 68.791663,-1.058333 c 0.0127,-0.308226 0.0754,-0.370919 0.15985,-0.159853 0.0764,0.190994 0.067,0.4192 -0.0209,0.507119 -0.0879,0.08792 -0.15046,-0.06835 -0.13897,-0.347266 z M 94.551376,43.610562 c 0,-0.654843 0.0516,-0.922734 0.114663,-0.595312 0.06307,0.327422 0.06307,0.863203 0,1.190625 -0.06306,0.327422 -0.114663,0.05953 -0.114663,-0.595313 z m 69.346654,-3.175 c 0,-1.527968 0.0437,-2.153047 0.0972,-1.389062 0.0534,0.763984 0.0534,2.01414 0,2.778125 -0.0534,0.763984 -0.0972,0.138906 -0.0972,-1.389063 z M 94.500203,41.60414 c 0.0127,-0.308227 0.07539,-0.37092 0.159851,-0.159854 0.07643,0.190995 0.06703,0.419201 -0.02088,0.507119 -0.08792,0.08792 -0.150452,-0.06835 -0.138964,-0.347265 z M 104.9965,40.513421 c 0.32742,-0.06307 0.86321,-0.06307 1.19063,0 0.32742,0.06306 0.0595,0.114663 -0.59532,0.114663 -0.65484,0 -0.92273,-0.0516 -0.59531,-0.114663 z m -2.62929,-0.258598 c 0.19099,-0.07643 0.4192,-0.06703 0.50711,0.02087 0.0879,0.08792 -0.0683,0.150453 -0.34726,0.138965 -0.30823,-0.0127 -0.37092,-0.07539 -0.15985,-0.159851 z m 6.06888,0.0055 c 0.1819,-0.0734 0.47955,-0.0734 0.66145,0 0.1819,0.0734 0.0331,0.133453 -0.33073,0.133453 -0.3638,0 -0.51263,-0.06006 -0.33072,-0.133453 z m -7.65638,-0.270094 c 0.19099,-0.07643 0.4192,-0.06703 0.50711,0.02088 0.0879,0.08792 -0.0684,0.150453 -0.34726,0.138965 -0.30823,-0.0127 -0.37092,-0.07539 -0.15985,-0.159851 z m 9.26041,0 c 0.191,-0.07643 0.4192,-0.06703 0.50712,0.02088 0.0879,0.08792 -0.0683,0.150453 -0.34727,0.138965 -0.30822,-0.0127 -0.37091,-0.07539 -0.15985,-0.159851 z M 96.546372,39.461065 c 0.190995,-0.07643 0.4192,-0.06703 0.507119,0.02088 0.08792,0.08792 -0.06835,0.150452 -0.347266,0.138964 -0.308226,-0.0127 -0.370919,-0.07539 -0.159853,-0.159851 z m 2.116666,0 c 0.190995,-0.07643 0.419201,-0.06703 0.507119,0.02088 0.08792,0.08792 -0.06835,0.150452 -0.347265,0.138964 -0.308227,-0.0127 -0.37092,-0.07539 -0.159854,-0.159851 z m 64.893412,-3.677767 c 0.0127,-0.308226 0.0754,-0.370919 0.15985,-0.159853 0.0764,0.190995 0.067,0.419201 -0.0209,0.507119 -0.0879,0.08792 -0.15046,-0.06835 -0.13897,-0.347266 z m -41.29589,-2.094611 c 0.34178,-0.363802 0.68094,-0.661458 0.7537,-0.661458 0.0728,0 -0.14734,0.297656 -0.48911,0.661458 -0.34178,0.363802 -0.68094,0.661459 -0.7537,0.661459 -0.0728,0 0.14734,-0.297657 0.48911,-0.661459 z m 41.03131,0.242536 c 0.0127,-0.308226 0.0754,-0.370919 0.15985,-0.159853 0.0764,0.190994 0.067,0.4192 -0.0209,0.507119 -0.0879,0.08792 -0.15045,-0.06835 -0.13896,-0.347266 z m -0.26458,-1.322917 c 0.0127,-0.308226 0.0754,-0.370919 0.15985,-0.159853 0.0764,0.190995 0.067,0.419201 -0.0209,0.507119 -0.0879,0.08792 -0.15045,-0.06835 -0.13896,-0.347266 z M 128.63145,21.76039 c 0.0127,-0.308227 0.0754,-0.37092 0.15985,-0.159854 0.0764,0.190995 0.067,0.419201 -0.0209,0.507119 -0.0879,0.08792 -0.15045,-0.06835 -0.13897,-0.347265 z m 0.26459,-1.5875 c 0.0127,-0.308227 0.0754,-0.37092 0.15985,-0.159854 0.0764,0.190995 0.067,0.419201 -0.0209,0.507119 -0.0879,0.08792 -0.15045,-0.06835 -0.13896,-0.347265 z m 26.93286,-1.896182 c -0.32911,-0.419645 -0.31975,-0.429003 0.0999,-0.0999 0.44073,0.345644 0.58089,0.562917 0.36313,0.562917 -0.0549,0 -0.2633,-0.208359 -0.46302,-0.463021 z m -26.61711,-1.389062 c 0,-0.654844 0.0516,-0.922735 0.11467,-0.595313 0.0631,0.327422 0.0631,0.863203 0,1.190625 -0.0631,0.327422 -0.11467,0.05953 -0.11467,-0.595312 z m 22.52468,-2.711979 -0.50403,-0.595313 0.59531,0.504029 c 0.32742,0.277214 0.59531,0.545105 0.59531,0.595312 0,0.211733 -0.21293,0.05542 -0.68659,-0.504028 z m -22.81955,-0.198438 c 0,-0.363802 0.0601,-0.51263 0.13346,-0.330729 0.0734,0.181901 0.0734,0.479557 0,0.661458 -0.0734,0.181901 -0.13346,0.03307 -0.13346,-0.330729 z m -0.30636,-6.9790628 c 0,-0.054941 0.20836,-0.2633001 0.46302,-0.4630208 0.41965,-0.3291073 0.42901,-0.3197489 0.0999,0.099896 -0.34564,0.4407297 -0.56292,0.5808874 -0.56292,0.3631248 z m 5.24206,-0.8745934 c 0.191,-0.07643 0.4192,-0.067032 0.50712,0.020876 0.0879,0.087918 -0.0683,0.1504527 -0.34727,0.1389645 -0.30822,-0.0127 -0.37091,-0.07539 -0.15985,-0.1598507 z m -2.52504,-0.2671974 c 0.25743,-0.067082 0.61462,-0.062672 0.79375,0.00982 0.17913,0.072477 -0.0315,0.1273625 -0.46806,0.1219703 -0.43656,-0.0054 -0.58312,-0.064691 -0.32569,-0.1317731 z"
             id="path954" />
          <path
             style="fill:#1d2f4f;stroke-width:0.264583"
             d="M 124.64181,74.922399 C 111.24577,72.866428 100.81669,64.226414 96.342862,51.478022 c -1.549757,-4.41611 -2.135891,-9.52214 -1.248529,-10.876423 0.694135,-1.059384 2.273935,-1.365179 4.395838,-0.850882 5.341549,1.29466 10.028069,1.020826 15.117319,-0.883306 5.53974,-2.072682 10.86724,-7.465562 13.07017,-13.230569 1.63635,-4.28227 2.00873,-9.596014 0.97152,-13.863317 -0.70744,-2.9105728 -0.71032,-3.6291388 -0.0181,-4.5091615 1.1199,-1.4237282 2.39519,-1.5814119 6.56072,-0.8111992 14.52521,2.6857325 25.77435,13.8523737 28.20463,27.9977847 0.52478,3.054448 0.5222,8.93866 -0.005,11.969226 -1.34052,7.702262 -5.59724,15.340598 -11.26987,20.222885 -4.69322,4.03933 -10.96721,7.106192 -16.46781,8.049818 -2.1491,0.368676 -9.15371,0.514676 -11.0117,0.229521 z"
             id="path952" />
        </g>
      </g>
    </g>
  </g>
</svg>
