<?xml version="1.0" encoding="UTF-8" standalone="no"?>
<!-- Created with Inkscape (http://www.inkscape.org/) -->

<svg
   width="200mm"
   height="200mm"
   viewBox="0 0 200 200"
   version="1.1"
   id="svg5"
   inkscape:version="1.1.2 (b8e25be833, 2022-02-05)"
   sodipodi:docname="folder.svg"
   xmlns:inkscape="http://www.inkscape.org/namespaces/inkscape"
   xmlns:sodipodi="http://sodipodi.sourceforge.net/DTD/sodipodi-0.dtd"
   xmlns="http://www.w3.org/2000/svg"
   xmlns:svg="http://www.w3.org/2000/svg">
  <sodipodi:namedview
     id="namedview7"
     pagecolor="#ffffff"
     bordercolor="#666666"
     borderopacity="1.0"
     inkscape:pageshadow="2"
     inkscape:pageopacity="0.0"
     inkscape:pagecheckerboard="0"
     inkscape:document-units="mm"
     showgrid="false"
     inkscape:zoom="0.90583672"
     inkscape:cx="348.29677"
     inkscape:cy="433.85302"
     inkscape:window-width="1920"
     inkscape:window-height="1137"
     inkscape:window-x="-1928"
     inkscape:window-y="-4"
     inkscape:window-maximized="1"
     inkscape:current-layer="g837"
     inkscape:snap-global="false" />
  <defs
     id="defs2" />
  <g
     inkscape:label="Шар 1"
     inkscape:groupmode="layer"
     id="layer1">
    <g
       id="g1456"
       transform="translate(-7.0100934,38.555514)">
      <g
         id="g837"
         transform="translate(16.648972,16.064797)">
        <path
           style="fill:#b7bdc7;stroke-width:0.264583"
           d="m -121.21376,75.546029 -0.50402,-0.595313 0.59531,0.504029 c 0.55945,0.473662 0.71576,0.686596 0.50403,0.686596 -0.0502,0 -0.3181,-0.26789 -0.59532,-0.595312 z m -3.50496,-8.400521 c 0,-0.363802 0.0601,-0.51263 0.13346,-0.330729 0.0734,0.181901 0.0734,0.479557 0,0.661458 -0.0734,0.181901 -0.13346,0.03307 -0.13346,-0.330729 z M 83.752068,-2.3296672 c 0.0127,-0.3082264 0.07539,-0.3709194 0.159851,-0.1598533 0.07643,0.1909948 0.06703,0.4192005 -0.02088,0.5071189 -0.08792,0.087918 -0.150453,-0.068352 -0.138965,-0.3472656 z M 54.82545,-14.015168 c 3.237838,-0.04209 8.53612,-0.04209 11.773958,0 3.237839,0.04209 0.588698,0.07653 -5.886979,0.07653 -6.475677,0 -9.124818,-0.03444 -5.886979,-0.07653 z m -5.957888,-24.143494 c 0,-0.509323 0.05445,-0.717683 0.121002,-0.463021 0.06655,0.254661 0.06655,0.67138 0,0.926042 -0.06655,0.254661 -0.121002,0.0463 -0.121002,-0.463021 z m -0.305078,-2.271006 c 0.0127,-0.308227 0.07539,-0.37092 0.159851,-0.159854 0.07643,0.190995 0.06703,0.419198 -0.02088,0.507119 -0.08792,0.08792 -0.150452,-0.06835 -0.138964,-0.347265 z m -6.635472,-12.942537 c -0.642681,-0.654843 -1.10898,-1.190625 -1.03622,-1.190625 0.07276,0 0.658122,0.535782 1.300803,1.190625 0.642681,0.654844 1.10898,1.190626 1.03622,1.190626 -0.07276,0 -0.658122,-0.535782 -1.300803,-1.190626 z m -12.485027,-6.398448 c 0.190995,-0.07643 0.419201,-0.06703 0.507119,0.02088 0.08792,0.08792 -0.06835,0.150453 -0.347265,0.138964 -0.308227,-0.0127 -0.37092,-0.07539 -0.159854,-0.15985 z m -1.995876,-0.267197 c 0.257432,-0.06708 0.614619,-0.06267 0.79375,0.0098 0.179131,0.07248 -0.03149,0.127363 -0.468056,0.12197 -0.436562,-0.0054 -0.583126,-0.06469 -0.325694,-0.131773 z m -45.90716,-0.268359 c 0.329118,-0.06329 0.805368,-0.06088 1.058334,0.0053 0.252965,0.06622 -0.01633,0.118004 -0.598398,0.115067 -0.582083,-0.0029 -0.789054,-0.05712 -0.459936,-0.120407 z m -2.384335,-0.252682 c 0.181901,-0.0734 0.479558,-0.0734 0.661459,0 0.181901,0.0734 0.03307,0.133453 -0.33073,0.133453 -0.363802,0 -0.51263,-0.06005 -0.330729,-0.133453 z m -103.598944,-1.544564 c 0.005,-0.436562 0.0647,-0.583126 0.13177,-0.325694 0.0671,0.257432 0.0627,0.614619 -0.01,0.79375 -0.0725,0.179131 -0.12736,-0.03149 -0.12197,-0.468056 z m 0.23389,-1.874131 c 0.0127,-0.308226 0.0754,-0.370919 0.15985,-0.159853 0.0764,0.190995 0.067,0.4192 -0.0209,0.507119 -0.0879,0.08792 -0.15046,-0.06835 -0.13897,-0.347266 z m 91.775291,-2.425348 -0.9118,-0.992188 0.992188,0.9118 c 0.545703,0.501488 0.992187,0.947973 0.992187,0.992187 0,0.202041 -0.223895,0.01172 -1.072575,-0.911799 z m -87.298261,-7.838958 c 0,-0.05494 0.20836,-0.263301 0.46302,-0.46302 0.41965,-0.329108 0.429,-0.31975 0.0999,0.09989 -0.34565,0.440729 -0.56292,0.580887 -0.56292,0.363126 z m 75.513406,-3.670418 -0.504028,-0.595312 0.595312,0.504028 c 0.559446,0.473662 0.715762,0.686597 0.504029,0.686597 -0.05021,0 -0.318098,-0.267891 -0.595313,-0.595313 z m -1.46382,-1.190625 c -0.329107,-0.419644 -0.319749,-0.429002 0.0999,-0.09989 0.44073,0.345643 0.580887,0.562915 0.363125,0.562915 -0.05494,0 -0.2633,-0.208359 -0.463021,-0.463021 z m -60.340856,-3.686469 c 0.19099,-0.07643 0.41919,-0.06703 0.50711,0.02089 0.0879,0.08792 -0.0683,0.150453 -0.34726,0.138965 -0.30823,-0.01269 -0.37092,-0.07539 -0.15985,-0.159853 z m 1.5875,-0.264584 c 0.19099,-0.07643 0.41919,-0.06703 0.50711,0.02089 0.0879,0.08792 -0.0683,0.150453 -0.34726,0.138965 -0.30823,-0.0127 -0.37092,-0.07539 -0.15985,-0.159853 z m 48.947913,0 c 0.190995,-0.07643 0.419201,-0.06703 0.507119,0.02089 0.08792,0.08792 -0.06835,0.150453 -0.347266,0.138965 -0.308226,-0.0127 -0.370919,-0.07539 -0.159853,-0.159853 z m -35.735287,-0.282206 c 6.293776,-0.03951 16.592682,-0.03951 22.886459,0 6.293776,0.03951 1.144323,0.07184 -11.44323,0.07184 -12.587552,0 -17.737006,-0.03233 -11.443229,-0.07184 z"
           id="path847" />
        <path
           style="fill:#a4abb8;stroke-width:0.254184"
           d="m 153.6306,113.75696 c 1.48521,-2.61611 2.39208,-4.05886 2.39271,-3.80661 9.6e-4,0.37475 -2.23248,4.24349 -2.71114,4.69626 -0.22171,0.2097 -0.0784,-0.19064 0.31843,-0.88965 z M -9.1206048,49.448346 c 0.073781,-68.377286 -0.081947,-62.499886 1.7765967,-67.058533 2.7204808,-6.672809 8.8101912,-11.703813 15.8967395,-13.133079 2.5658756,-0.517497 3.1513246,-0.527486 26.1809766,-0.446885 25.561862,0.08942 23.939622,9.56e-4 27.648468,1.504266 2.993636,1.213206 5.102249,2.909623 11.794455,9.48887 7.744624,7.613896 9.242701,8.695282 14.156165,10.2186194 l 2.23872,0.694078 23.766224,0.154102 c 26.09922,0.16923 25.21254,0.115943 29.24675,1.757681 2.6513,1.078953 4.39747,2.207288 6.59011,4.25839 3.43503,3.21329603 5.70484,7.165684 6.75704,11.7659152 0.36958,1.6158284 0.45306,3.7756054 0.54777,14.1707734 l 0.11176,12.264391 -58.1657,0.002 c -57.604452,0.0018 -59.993021,0.03361 -62.359741,0.827714 -2.083328,0.699019 -4.40598,2.534939 -5.813603,4.595316 -0.39708,0.58111 -9.399992,15.926428 -20.006476,34.100603 C -0.63948087,94.977714 -8.2591195,108.29047 -8.6129055,109.30872 l -0.5740546,1.6522 z"
           id="path845" />
        <path
           style="fill:#909aa9;stroke-width:0.264583"
           d="m -42.276636,-14.015422 c 16.771276,-0.03761 44.2151832,-0.03761 60.98646,0 16.771276,0.03761 3.049323,0.06838 -30.49323,0.06838 -33.542553,0 -47.264507,-0.03077 -30.49323,-0.06838 z"
           id="path843" />
        <path
           style="fill:#1d2f4f;stroke-width:0.254184"
           d="m -1.4431899,123.69502 c -1.8434514,-0.58454 -3.2646769,-1.46812 -4.6047235,-2.86278 -2.9704348,-3.0915 -3.8803969,-7.59636 -2.3569246,-11.66821 0.595065,-1.59043 38.900793,-67.408454 40.333363,-69.301949 1.238226,-1.636624 3.33965,-3.135091 5.359018,-3.82137 l 1.684568,-0.572499 70.281939,-0.06984 c 42.53866,-0.04227 70.88398,0.02365 71.80707,0.166991 2.93443,0.45569 4.39641,1.199291 6.50662,3.309452 1.66914,1.669084 2.01413,2.172818 2.54126,3.710556 0.78119,2.278875 0.81492,5.417005 0.0806,7.498437 -0.40078,1.136003 -12.30028,21.727592 -37.44645,64.799472 -3.47242,5.94779 -5.09383,7.56765 -8.69759,8.68926 -1.49225,0.46445 -3.69351,0.47837 -73.005321,0.46188 -56.983351,-0.0136 -71.67272618,-0.0823 -72.4834195,-0.3394 z"
           id="path839" />
      </g>
    </g>
  </g>
</svg>
