<?xml version="1.0" encoding="UTF-8" standalone="no"?>
<!-- Created with Inkscape (http://www.inkscape.org/) -->

<svg
   width="200mm"
   height="200mm"
   viewBox="0 0 200 200"
   version="1.1"
   id="svg5"
   inkscape:version="1.1.2 (b8e25be833, 2022-02-05)"
   sodipodi:docname="key.svg"
   xmlns:inkscape="http://www.inkscape.org/namespaces/inkscape"
   xmlns:sodipodi="http://sodipodi.sourceforge.net/DTD/sodipodi-0.dtd"
   xmlns="http://www.w3.org/2000/svg"
   xmlns:svg="http://www.w3.org/2000/svg">
  <sodipodi:namedview
     id="namedview7"
     pagecolor="#ffffff"
     bordercolor="#666666"
     borderopacity="1.0"
     inkscape:pageshadow="2"
     inkscape:pageopacity="0.0"
     inkscape:pagecheckerboard="0"
     inkscape:document-units="mm"
     showgrid="false"
     inkscape:zoom="0.64052329"
     inkscape:cx="412.163"
     inkscape:cy="376.25486"
     inkscape:window-width="1920"
     inkscape:window-height="1137"
     inkscape:window-x="-1928"
     inkscape:window-y="-4"
     inkscape:window-maximized="1"
     inkscape:current-layer="g837"
     inkscape:snap-global="false" />
  <defs
     id="defs2" />
  <g
     inkscape:label="Шар 1"
     inkscape:groupmode="layer"
     id="layer1">
    <g
       id="g1456"
       transform="translate(-7.0100934,38.555514)">
      <g
         id="g837"
         transform="translate(16.648972,16.064797)">
        <path
           style="fill:#b7bdc7;stroke-width:0.264583"
           d="m -121.21376,75.546029 -0.50402,-0.595313 0.59531,0.504029 c 0.55945,0.473662 0.71576,0.686596 0.50403,0.686596 -0.0502,0 -0.3181,-0.26789 -0.59532,-0.595312 z m -3.50496,-8.400521 c 0,-0.363802 0.0601,-0.51263 0.13346,-0.330729 0.0734,0.181901 0.0734,0.479557 0,0.661458 -0.0734,0.181901 -0.13346,0.03307 -0.13346,-0.330729 z M 83.752068,-2.3296672 c 0.0127,-0.3082264 0.07539,-0.3709194 0.159851,-0.1598533 0.07643,0.1909948 0.06703,0.4192005 -0.02088,0.5071189 -0.08792,0.087918 -0.150453,-0.068352 -0.138965,-0.3472656 z M 54.82545,-14.015168 c 3.237838,-0.04209 8.53612,-0.04209 11.773958,0 3.237839,0.04209 0.588698,0.07653 -5.886979,0.07653 -6.475677,0 -9.124818,-0.03444 -5.886979,-0.07653 z m -5.957888,-24.143494 c 0,-0.509323 0.05445,-0.717683 0.121002,-0.463021 0.06655,0.254661 0.06655,0.67138 0,0.926042 -0.06655,0.254661 -0.121002,0.0463 -0.121002,-0.463021 z m -0.305078,-2.271006 c 0.0127,-0.308227 0.07539,-0.37092 0.159851,-0.159854 0.07643,0.190995 0.06703,0.419198 -0.02088,0.507119 -0.08792,0.08792 -0.150452,-0.06835 -0.138964,-0.347265 z m -6.635472,-12.942537 c -0.642681,-0.654843 -1.10898,-1.190625 -1.03622,-1.190625 0.07276,0 0.658122,0.535782 1.300803,1.190625 0.642681,0.654844 1.10898,1.190626 1.03622,1.190626 -0.07276,0 -0.658122,-0.535782 -1.300803,-1.190626 z m -12.485027,-6.398448 c 0.190995,-0.07643 0.419201,-0.06703 0.507119,0.02088 0.08792,0.08792 -0.06835,0.150453 -0.347265,0.138964 -0.308227,-0.0127 -0.37092,-0.07539 -0.159854,-0.15985 z m -1.995876,-0.267197 c 0.257432,-0.06708 0.614619,-0.06267 0.79375,0.0098 0.179131,0.07248 -0.03149,0.127363 -0.468056,0.12197 -0.436562,-0.0054 -0.583126,-0.06469 -0.325694,-0.131773 z m -45.90716,-0.268359 c 0.329118,-0.06329 0.805368,-0.06088 1.058334,0.0053 0.252965,0.06622 -0.01633,0.118004 -0.598398,0.115067 -0.582083,-0.0029 -0.789054,-0.05712 -0.459936,-0.120407 z m -2.384335,-0.252682 c 0.181901,-0.0734 0.479558,-0.0734 0.661459,0 0.181901,0.0734 0.03307,0.133453 -0.33073,0.133453 -0.363802,0 -0.51263,-0.06005 -0.330729,-0.133453 z m -103.598944,-1.544564 c 0.005,-0.436562 0.0647,-0.583126 0.13177,-0.325694 0.0671,0.257432 0.0627,0.614619 -0.01,0.79375 -0.0725,0.179131 -0.12736,-0.03149 -0.12197,-0.468056 z m 0.23389,-1.874131 c 0.0127,-0.308226 0.0754,-0.370919 0.15985,-0.159853 0.0764,0.190995 0.067,0.4192 -0.0209,0.507119 -0.0879,0.08792 -0.15046,-0.06835 -0.13897,-0.347266 z m 91.775291,-2.425348 -0.9118,-0.992188 0.992188,0.9118 c 0.545703,0.501488 0.992187,0.947973 0.992187,0.992187 0,0.202041 -0.223895,0.01172 -1.072575,-0.911799 z m -87.298261,-7.838958 c 0,-0.05494 0.20836,-0.263301 0.46302,-0.46302 0.41965,-0.329108 0.429,-0.31975 0.0999,0.09989 -0.34565,0.440729 -0.56292,0.580887 -0.56292,0.363126 z m 75.513406,-3.670418 -0.504028,-0.595312 0.595312,0.504028 c 0.559446,0.473662 0.715762,0.686597 0.504029,0.686597 -0.05021,0 -0.318098,-0.267891 -0.595313,-0.595313 z m -1.46382,-1.190625 c -0.329107,-0.419644 -0.319749,-0.429002 0.0999,-0.09989 0.44073,0.345643 0.580887,0.562915 0.363125,0.562915 -0.05494,0 -0.2633,-0.208359 -0.463021,-0.463021 z m -60.340856,-3.686469 c 0.19099,-0.07643 0.41919,-0.06703 0.50711,0.02089 0.0879,0.08792 -0.0683,0.150453 -0.34726,0.138965 -0.30823,-0.01269 -0.37092,-0.07539 -0.15985,-0.159853 z m 1.5875,-0.264584 c 0.19099,-0.07643 0.41919,-0.06703 0.50711,0.02089 0.0879,0.08792 -0.0683,0.150453 -0.34726,0.138965 -0.30823,-0.0127 -0.37092,-0.07539 -0.15985,-0.159853 z m 48.947913,0 c 0.190995,-0.07643 0.419201,-0.06703 0.507119,0.02089 0.08792,0.08792 -0.06835,0.150453 -0.347266,0.138965 -0.308226,-0.0127 -0.370919,-0.07539 -0.159853,-0.159853 z m -35.735287,-0.282206 c 6.293776,-0.03951 16.592682,-0.03951 22.886459,0 6.293776,0.03951 1.144323,0.07184 -11.44323,0.07184 -12.587552,0 -17.737006,-0.03233 -11.443229,-0.07184 z"
           id="path847" />
        <path
           style="fill:#909aa9;stroke-width:0.264583"
           d="m -42.276636,-14.015422 c 16.771276,-0.03761 44.2151832,-0.03761 60.98646,0 16.771276,0.03761 3.049323,0.06838 -30.49323,0.06838 -33.542553,0 -47.264507,-0.03077 -30.49323,-0.06838 z"
           id="path843" />
        <g
           id="g858"
           transform="matrix(0.83704618,0,0,0.83704618,13.284225,9.8088493)">
          <path
             style="fill:#a3aab7;stroke-width:0.264583"
             d="m 2.9201389,135.59138 c -1.9173164,-0.78823 -3.39205106,-2.18507 -4.3360871,-4.10707 l -0.7147586,-1.45521 v -16.93334 c 0,-16.082459 0.025241,-16.986508 0.5022268,-17.991663 0.3420692,-0.720839 10.0025123,-10.571631 30.293676,-30.890589 l 29.791452,-29.832254 20.571815,20.570548 20.571815,20.570545 -6.516159,6.520072 c -4.298214,4.300794 -6.932181,6.732794 -7.738406,7.145041 -1.199219,0.613194 -1.382729,0.626412 -9.738117,0.701459 l -8.515864,0.07649 -0.0831,8.25789 -0.08309,8.257881 -0.749028,1.62087 c -0.929103,2.01055 -2.219579,3.29281 -4.278056,4.25083 l -1.5875,0.73883 -8.254563,0.0851 -8.254567,0.0851 -0.07981,8.38359 -0.07981,8.3836 -0.73302,1.49265 c -0.936406,1.9068 -2.606794,3.44289 -4.523907,4.16017 -1.481966,0.55447 -1.80838,0.56477 -17.705602,0.55861 l -16.1958053,-0.006 z M 116.20419,78.376239 c 0.47294,-0.05869 1.24685,-0.05869 1.71979,0 0.47295,0.05869 0.086,0.106714 -0.85989,0.106714 -0.94589,0 -1.33284,-0.04802 -0.8599,-0.106714 z m 3.8401,0.0016 c 0.40218,-0.06082 0.99749,-0.05919 1.32292,0.0036 0.32542,0.0628 -0.004,0.112559 -0.73125,0.110575 -0.7276,-0.0021 -0.99385,-0.05337 -0.59167,-0.114186 z m -7.54426,-0.249999 c 0.1819,-0.0734 0.47955,-0.0734 0.66145,0 0.1819,0.0734 0.0331,0.133453 -0.33073,0.133453 -0.3638,0 -0.51263,-0.06006 -0.33072,-0.133453 z m 11.24982,-0.0081 c 0.25743,-0.06708 0.61462,-0.06267 0.79375,0.0098 0.17913,0.07248 -0.0315,0.127362 -0.46805,0.12197 -0.43657,-0.0054 -0.58313,-0.06469 -0.3257,-0.131773 z m -13.75833,-0.26462 c 0.25743,-0.06708 0.61462,-0.06267 0.79375,0.0098 0.17913,0.07248 -0.0315,0.127362 -0.46806,0.12197 -0.43656,-0.0054 -0.58312,-0.06469 -0.32569,-0.131773 z m 16.26684,0.0081 c 0.1819,-0.0734 0.47956,-0.0734 0.66146,0 0.1819,0.0734 0.0331,0.133453 -0.33073,0.133453 -0.3638,0 -0.51263,-0.06006 -0.33073,-0.133453 z m -17.97513,-0.270094 c 0.19099,-0.07643 0.4192,-0.06703 0.50712,0.02088 0.0879,0.08792 -0.0684,0.150453 -0.34727,0.138965 -0.30822,-0.0127 -0.37092,-0.07539 -0.15985,-0.159851 z m 20.0918,0.0055 c 0.1819,-0.0734 0.47955,-0.0734 0.66145,0 0.18191,0.0734 0.0331,0.133453 -0.33073,0.133453 -0.3638,0 -0.51263,-0.06006 -0.33072,-0.133453 z m -21.6793,-0.270095 c 0.19099,-0.07643 0.4192,-0.06703 0.50712,0.02088 0.0879,0.08792 -0.0684,0.150453 -0.34727,0.138964 -0.30822,-0.0127 -0.37092,-0.07539 -0.15985,-0.15985 z m -1.32292,-0.264583 c 0.191,-0.07643 0.4192,-0.06703 0.50712,0.02088 0.0879,0.08792 -0.0683,0.150452 -0.34727,0.138964 -0.30822,-0.0127 -0.37091,-0.07539 -0.15985,-0.159851 z m 26.19375,0 c 0.191,-0.07643 0.4192,-0.06703 0.50712,0.02088 0.0879,0.08792 -0.0684,0.150452 -0.34726,0.138964 -0.30823,-0.0127 -0.37092,-0.07539 -0.15986,-0.159851 z m 2.38125,-0.529167 c 0.191,-0.07643 0.4192,-0.06703 0.50712,0.02088 0.0879,0.08792 -0.0683,0.150453 -0.34726,0.138964 -0.30823,-0.0127 -0.37092,-0.07539 -0.15986,-0.15985 z m 23.86211,-11.296232 c 0,-0.05494 0.20836,-0.2633 0.46302,-0.463021 0.41965,-0.329107 0.42901,-0.319749 0.0999,0.0999 -0.34564,0.44073 -0.56292,0.580888 -0.56292,0.363125 z m 1.5875,-1.322917 c 0,-0.05494 0.20836,-0.2633 0.46302,-0.463021 0.41965,-0.329107 0.42901,-0.319749 0.0999,0.0999 -0.34564,0.44073 -0.56292,0.580888 -0.56292,0.363125 z m 4.63021,-4.39802 c 1.44975,-1.455209 2.69544,-2.645834 2.7682,-2.645834 0.0728,0 -1.05387,1.190625 -2.50362,2.645834 -1.44974,1.455208 -2.69543,2.645833 -2.76819,2.645833 -0.0728,0 1.05386,-1.190625 2.50361,-2.645833 z m 3.96875,-4.233334 c 0.26339,-0.291042 0.53842,-0.529167 0.61118,-0.529167 0.0728,0 -0.0832,0.238125 -0.3466,0.529167 -0.26339,0.291042 -0.53842,0.529167 -0.61118,0.529167 -0.0728,0 0.0832,-0.238125 0.3466,-0.529167 z m 0.92604,-1.158229 c 0,-0.05494 0.20836,-0.2633 0.46302,-0.463021 0.41965,-0.329108 0.42901,-0.319749 0.0999,0.0999 -0.34564,0.44073 -0.56292,0.580887 -0.56292,0.363125 z M 56.759975,28.407047 c 0.0127,-0.308226 0.07539,-0.370919 0.159851,-0.159853 0.07643,0.190995 0.06703,0.4192 -0.02088,0.507119 -0.08792,0.08792 -0.150452,-0.06835 -0.138964,-0.347266 z M 56.495392,27.08413 c 0.0127,-0.308226 0.07539,-0.370919 0.159851,-0.159853 0.07643,0.190995 0.06703,0.419201 -0.02088,0.507119 -0.08792,0.08792 -0.150453,-0.06835 -0.138965,-0.347266 z M 181.64331,25.761214 c 0.0127,-0.308227 0.0754,-0.37092 0.15985,-0.159854 0.0764,0.190995 0.067,0.419201 -0.0209,0.507119 -0.0879,0.08792 -0.15046,-0.06835 -0.13897,-0.347265 z m 0.28547,-1.697744 c 0,-0.363802 0.0601,-0.51263 0.13345,-0.330729 0.0734,0.181901 0.0734,0.479557 0,0.661458 -0.0734,0.181901 -0.13345,0.03307 -0.13345,-0.330729 z M 55.987111,23.798886 c 0,-0.363802 0.06005,-0.51263 0.133454,-0.330729 0.0734,0.181901 0.0734,0.479558 0,0.661459 -0.0734,0.181901 -0.133454,0.03307 -0.133454,-0.33073 z m 126.206249,-1.5875 c 0,-0.363802 0.0601,-0.51263 0.13346,-0.330729 0.0734,0.181901 0.0734,0.479558 0,0.661459 -0.0734,0.181901 -0.13346,0.03307 -0.13346,-0.33073 z M 55.722528,21.417636 c 0,-0.363802 0.06006,-0.51263 0.133453,-0.330729 0.0734,0.181901 0.0734,0.479557 0,0.661459 -0.0734,0.181901 -0.133453,0.03307 -0.133453,-0.33073 z M 182.47756,19.565553 c 0,-0.509323 0.0545,-0.717682 0.121,-0.463021 0.0666,0.254662 0.0666,0.67138 0,0.926042 -0.0665,0.254661 -0.121,0.0463 -0.121,-0.463021 z M 55.505125,17.184303 c 0,-1.091406 0.0467,-1.537891 0.103786,-0.992188 0.05708,0.545703 0.05708,1.438672 0,1.984375 -0.05708,0.545704 -0.103786,0.09922 -0.103786,-0.992187 z m 127.260315,-2.38125 c 0,-0.945886 0.048,-1.332839 0.10672,-0.859896 0.0587,0.472943 0.0587,1.246849 0,1.719792 -0.0587,0.472942 -0.10672,0.08599 -0.10672,-0.859896 z m -51.19888,-0.18074 c 0.191,-0.07643 0.4192,-0.06703 0.50712,0.02088 0.0879,0.08792 -0.0684,0.150453 -0.34726,0.138964 -0.30823,-0.0127 -0.37092,-0.07539 -0.15986,-0.15985 z m 3.42305,0.0055 c 0.1819,-0.0734 0.47956,-0.0734 0.66146,0 0.1819,0.0734 0.0331,0.133453 -0.33073,0.133453 -0.3638,0 -0.51263,-0.06006 -0.33073,-0.133453 z m -79.501378,-1.41226 c 0,-0.654844 0.0516,-0.922735 0.114662,-0.595313 0.06307,0.327422 0.06307,0.863203 0,1.190625 -0.06306,0.327422 -0.114662,0.05953 -0.114662,-0.595312 z m 87.108148,-1.5875 c 0.26339,-0.291042 0.53842,-0.529167 0.61118,-0.529167 0.0728,0 -0.0832,0.238125 -0.3466,0.529167 -0.26339,0.291041 -0.53842,0.529166 -0.61118,0.529166 -0.0728,0 0.0832,-0.238125 0.3466,-0.529166 z m -18.67315,-0.463021 -0.64143,-0.727604 0.7276,0.641432 c 0.40018,0.35279 0.7276,0.680212 0.7276,0.727604 0,0.207507 -0.21425,0.03862 -0.81377,-0.641432 z m 58.54452,-0.992188 c 0.005,-0.4365622 0.0647,-0.5831255 0.13178,-0.3256938 0.0671,0.2574318 0.0627,0.6146188 -0.01,0.7937498 -0.0725,0.179131 -0.12736,-0.03149 -0.12197,-0.468056 z m -60.00484,-0.4630205 -0.50403,-0.5953125 0.59531,0.5040286 c 0.32742,0.2772145 0.59531,0.5451054 0.59531,0.5953124 0,0.211733 -0.21293,0.05542 -0.68659,-0.5040285 z m 21.85326,0.2308331 c 0,-0.054941 0.20836,-0.2633001 0.46302,-0.4630209 0.41965,-0.3291073 0.42901,-0.3197489 0.0999,0.099896 -0.34564,0.4407303 -0.56292,0.5808873 -0.56292,0.3631249 z M 55.722528,9.2468026 c 0,-0.3638021 0.06006,-0.5126302 0.133453,-0.3307291 0.0734,0.181901 0.0734,0.4795573 0,0.6614583 -0.0734,0.1819011 -0.133453,0.033073 -0.133453,-0.3307292 z M 182.19336,7.3947192 c 0,-0.3638021 0.0601,-0.5126302 0.13346,-0.3307291 0.0734,0.181901 0.0734,0.4795573 0,0.6614583 -0.0734,0.1819011 -0.13346,0.033073 -0.13346,-0.3307292 z M 55.987111,7.1301359 c 0,-0.3638021 0.06005,-0.5126302 0.133454,-0.3307292 0.0734,0.1819011 0.0734,0.4795573 0,0.6614584 -0.0734,0.181901 -0.133454,0.033073 -0.133454,-0.3307292 z m 125.941669,-1.5875 c 0,-0.3638021 0.0601,-0.5126303 0.13345,-0.3307292 0.0734,0.181901 0.0734,0.4795573 0,0.6614583 -0.0734,0.1819011 -0.13345,0.033073 -0.13345,-0.3307291 z M 56.230808,5.1237131 c 0.0127,-0.3082264 0.07539,-0.3709194 0.159851,-0.1598533 0.07643,0.1909948 0.06703,0.4192005 -0.02087,0.5071189 -0.08792,0.087918 -0.150453,-0.068352 -0.138965,-0.3472656 z M 181.64331,3.8007964 c 0.0127,-0.3082264 0.0754,-0.3709194 0.15985,-0.1598533 0.0764,0.1909948 0.067,0.4192005 -0.0209,0.5071189 -0.0879,0.087918 -0.15046,-0.068352 -0.13897,-0.3472656 z M 56.495392,3.5362131 c 0.0127,-0.3082264 0.07539,-0.3709194 0.159851,-0.1598534 0.07643,0.1909948 0.06703,0.4192006 -0.02088,0.507119 -0.08792,0.087918 -0.150453,-0.068353 -0.138965,-0.3472656 z M 181.37873,2.4778797 c 0.0127,-0.3082264 0.0754,-0.3709194 0.15985,-0.1598533 0.0764,0.1909948 0.067,0.4191979 -0.0209,0.5071189 -0.0879,0.087918 -0.15045,-0.068352 -0.13896,-0.3472656 z M 56.759975,2.2132964 c 0.0127,-0.3082264 0.07539,-0.3709194 0.159851,-0.1598534 0.07643,0.1909948 0.06703,0.4191979 -0.02088,0.507119 C 56.811026,2.64848 56.748494,2.492209 56.759982,2.2132964 Z M 119.23234,1.9707607 c 0.005,-0.4365625 0.0647,-0.5831258 0.13177,-0.3256941 0.0671,0.2574316 0.0627,0.6146192 -0.01,0.79375 -0.0725,0.1791309 -0.12736,-0.031493 -0.12197,-0.4680559 z m 28.56519,0.1322917 c 0,-0.3638021 0.0601,-0.5126302 0.13345,-0.3307292 0.0734,0.1819011 0.0734,0.4795573 0,0.6614584 -0.0734,0.181901 -0.13345,0.033073 -0.13345,-0.3307292 z m -28.56519,-3.3072918 c 0.005,-0.4365625 0.0647,-0.5831258 0.13177,-0.3256941 0.0671,0.2574316 0.0627,0.61461915 -0.01,0.79375001 -0.0725,0.17913086 -0.12736,-0.0314933 -0.12197,-0.46805591 z m 28.5443,-0.286631 c 0.0127,-0.3082264 0.0754,-0.3709194 0.15985,-0.1598533 0.0764,0.1909947 0.067,0.4191979 -0.0209,0.5071189 -0.0879,0.087918 -0.15045,-0.068352 -0.13897,-0.3472656 z m -28.31041,-1.3229167 c 0.0127,-0.3082264 0.0754,-0.3709194 0.15985,-0.1598534 0.0764,0.1909948 0.067,0.419198 -0.0209,0.507119 -0.0879,0.087918 -0.15045,-0.068353 -0.13896,-0.3472656 z m 2.62494,-5.7663902 c 0,-0.054941 0.20836,-0.2633001 0.46302,-0.4630209 0.41965,-0.3291073 0.42901,-0.319749 0.0999,0.099896 -0.34565,0.4407297 -0.56292,0.5808874 -0.56292,0.3631249 z m 2.11667,-2.1166667 c 0,-0.05494 0.20836,-0.2633 0.46302,-0.463021 0.41964,-0.329107 0.429,-0.319749 0.0999,0.0999 -0.34564,0.44073 -0.56291,0.580888 -0.56291,0.363125 z m 5.50664,-2.99126 c 0.19099,-0.07643 0.4192,-0.06703 0.50712,0.02087 0.0879,0.08792 -0.0683,0.150453 -0.34727,0.138965 -0.30822,-0.0127 -0.37092,-0.07539 -0.15985,-0.159851 z m 1.32292,-0.264584 c 0.19099,-0.07643 0.4192,-0.06703 0.50711,0.02088 0.0879,0.08792 -0.0684,0.150453 -0.34726,0.138964 -0.30823,-0.0127 -0.37092,-0.07539 -0.15985,-0.15985 z m 4.49791,0 c 0.191,-0.07643 0.4192,-0.06703 0.50712,0.02088 0.0879,0.08792 -0.0684,0.150453 -0.34726,0.138964 -0.30823,-0.0127 -0.37092,-0.07539 -0.15986,-0.15985 z m 34.4117,-9.278115 c -0.32911,-0.419645 -0.31975,-0.429003 0.0999,-0.0999 0.44073,0.345644 0.58089,0.562917 0.36313,0.562917 -0.0549,0 -0.2633,-0.208359 -0.46302,-0.463021 z m -1.05834,-1.322916 c -0.32911,-0.419645 -0.31975,-0.429004 0.0999,-0.0999 0.44073,0.345643 0.58089,0.562917 0.36312,0.562917 -0.0549,0 -0.2633,-0.20836 -0.46302,-0.463021 z m -98.788125,-1.124479 c 0.26339,-0.291042 0.538422,-0.529167 0.611182,-0.529167 0.07276,0 -0.08321,0.238125 -0.346599,0.529167 -0.26339,0.291041 -0.538421,0.529166 -0.611182,0.529166 -0.07276,0 0.08321,-0.238125 0.346599,-0.529166 z m 97.478935,-0.463021 -0.64143,-0.727604 0.7276,0.641432 c 0.40018,0.35279 0.72761,0.680212 0.72761,0.727604 0,0.207507 -0.21426,0.03862 -0.81378,-0.641432 z m -93.510185,-3.770313 c 1.595766,-1.600729 2.960923,-2.910417 3.033684,-2.910417 0.07276,0 -1.173335,1.309688 -2.769101,2.910417 -1.595765,1.600729 -2.960923,2.910417 -3.033683,2.910417 -0.07276,0 1.173334,-1.309688 2.7691,-2.910417 z m 90.479225,0.463021 -1.57922,-1.653646 1.65364,1.579219 c 0.90951,0.868569 1.65365,1.612709 1.65365,1.653646 0,0.1955 -0.26112,-0.04312 -1.72807,-1.579219 z m -4.3911,-4.101042 c -0.32911,-0.419645 -0.31975,-0.429003 0.0999,-0.0999 0.25466,0.199721 0.46302,0.40808 0.46302,0.463021 0,0.217763 -0.21727,0.0776 -0.56292,-0.363125 z m -81.987083,-0.166042 c 0,-0.05494 0.208359,-0.2633 0.463021,-0.463021 0.419645,-0.329107 0.429003,-0.319749 0.0999,0.0999 -0.345644,0.44073 -0.562917,0.580888 -0.562917,0.363125 z m 80.399583,-1.156875 c -0.32911,-0.419645 -0.31975,-0.429003 0.0999,-0.0999 0.25466,0.199721 0.46302,0.40808 0.46302,0.463021 0,0.217763 -0.21727,0.07761 -0.56292,-0.363125 z m -1.32291,-1.058333 c -0.32911,-0.419645 -0.31975,-0.429003 0.0999,-0.0999 0.25466,0.199721 0.46302,0.40808 0.46302,0.463021 0,0.217762 -0.21727,0.0776 -0.56291,-0.363125 z m -54.25545,-10.83022 c 0.191,-0.07643 0.4192,-0.06703 0.50712,0.02089 0.0879,0.08792 -0.0683,0.150453 -0.34727,0.138964 -0.30822,-0.01269 -0.37091,-0.07539 -0.15985,-0.159852 z m 28.31042,-0.79375 c 0.19099,-0.07643 0.4192,-0.06703 0.50712,0.02089 0.0879,0.08792 -0.0684,0.150453 -0.34727,0.138964 -0.30822,-0.01269 -0.37092,-0.07539 -0.15985,-0.159852 z m -23.28334,-0.264583 c 0.191,-0.07643 0.41921,-0.06703 0.50712,0.02089 0.0879,0.08792 -0.0684,0.150453 -0.34726,0.138965 -0.30823,-0.0127 -0.37092,-0.07539 -0.15986,-0.159853 z m 21.96042,0 c 0.191,-0.07643 0.4192,-0.06703 0.50712,0.02089 0.0879,0.08792 -0.0683,0.150453 -0.34726,0.138965 -0.30823,-0.0127 -0.37092,-0.07539 -0.15986,-0.159853 z m -20.65403,-0.259072 c 0.1819,-0.0734 0.47955,-0.0734 0.66145,0 0.1819,0.0734 0.0331,0.133452 -0.33073,0.133452 -0.3638,0 -0.51263,-0.06005 -0.33072,-0.133452 z m 19.06653,-0.0055 c 0.191,-0.07643 0.4192,-0.06703 0.50712,0.02089 0.0879,0.08792 -0.0684,0.150453 -0.34726,0.138964 -0.30823,-0.01269 -0.37092,-0.07539 -0.15986,-0.159852 z M 111.44169,-48.343 c 0.1819,-0.0734 0.47956,-0.0734 0.66146,0 0.1819,0.0734 0.0331,0.133452 -0.33073,0.133452 -0.3638,0 -0.51263,-0.06005 -0.33073,-0.133452 z m 14.81667,0 c 0.1819,-0.0734 0.47956,-0.0734 0.66146,0 0.1819,0.0734 0.0331,0.133452 -0.33073,0.133452 -0.3638,0 -0.51263,-0.06005 -0.33073,-0.133452 z m -12.29809,-0.272709 c 0.25743,-0.06708 0.61462,-0.06267 0.79375,0.0098 0.17913,0.07248 -0.0315,0.127362 -0.46806,0.12197 -0.43656,-0.0054 -0.58312,-0.06469 -0.32569,-0.131774 z m 9.25538,9.79e-4 c 0.25466,-0.06655 0.67138,-0.06655 0.92604,0 0.25466,0.06655 0.0463,0.121 -0.46302,0.121 -0.50932,0 -0.71768,-0.05445 -0.46302,-0.121 z m -5.42986,-0.273157 c 0.4697,-0.05845 1.30314,-0.05941 1.85209,-0.0021 0.54894,0.05727 0.16465,0.105098 -0.854,0.106272 -1.01865,0.0012 -1.46779,-0.04569 -0.99809,-0.104138 z"
             id="path862" />
          <path
             style="fill:#1d2f4f;stroke-width:0.264583"
             d="m 115.3443,78.266881 c -4.30362,-0.231749 -8.25723,-0.821963 -12.39672,-1.850639 L 99.733879,75.617629 79.061149,54.965325 58.388422,34.313024 57.709626,31.635641 C 56.18331,25.615383 55.66007,21.480107 55.648199,15.3438 55.620571,1.0640786 60.05277,-12.333808 68.472931,-23.423493 c 2.262431,-2.979711 8.252688,-9.046634 11.549489,-11.697301 8.461278,-6.802971 18.676076,-11.169988 30.29479,-12.951592 4.2824,-0.656659 13.28551,-0.663509 17.49129,-0.01331 5.58424,0.863307 11.37544,2.470834 16.37538,4.545492 11.2465,4.666586 22.47514,14.434768 29.3648,25.545469 6.1224,9.8733537 9.5143,22.9703191 9.04228,34.914452 -0.53149,13.44902 -4.93886,25.98858 -12.66136,36.023186 -2.2737,2.954449 -7.38282,8.251008 -10.60926,10.998471 -5.101,4.343749 -12.7839,8.685342 -19.2777,10.893795 -7.42509,2.525176 -16.95178,3.84886 -24.69834,3.43171 z m 21.78149,-63.866095 c 2.75343,-0.649119 4.50414,-1.631985 6.55086,-3.677733 2.86011,-2.8587486 4.34803,-6.4001887 4.33978,-10.32923543 -0.009,-4.10069787 -1.38255,-7.35345367 -4.39172,-10.39722557 -2.79916,-2.831351 -5.82553,-4.033123 -10.15646,-4.033123 -4.22807,0 -6.93413,1.114806 -9.9438,4.096517 -3.88979,3.8536484 -5.25309,9.10797197 -3.72872,14.3709315 0.80124,2.7663353 2.03689,4.781693 4.09061,6.6718315 3.46876,3.192478 8.43723,4.430154 13.23945,3.298037 z"
             id="path860" />
        </g>
      </g>
    </g>
  </g>
</svg>
