<?xml version="1.0" encoding="UTF-8" standalone="no"?>
<!-- Created with Inkscape (http://www.inkscape.org/) -->

<svg
   width="44mm"
   height="50mm"
   viewBox="0 0 44 50"
   version="1.1"
   id="svg5"
   inkscape:version="1.1.2 (b8e25be833, 2022-02-05)"
   sodipodi:docname="logo.svg"
   xmlns:inkscape="http://www.inkscape.org/namespaces/inkscape"
   xmlns:sodipodi="http://sodipodi.sourceforge.net/DTD/sodipodi-0.dtd"
   xmlns="http://www.w3.org/2000/svg"
   xmlns:svg="http://www.w3.org/2000/svg">
  <sodipodi:namedview
     id="namedview7"
     pagecolor="#ffffff"
     bordercolor="#666666"
     borderopacity="1.0"
     inkscape:pageshadow="2"
     inkscape:pageopacity="0.0"
     inkscape:pagecheckerboard="0"
     inkscape:document-units="mm"
     showgrid="false"
     showguides="true"
     inkscape:guide-bbox="true"
     inkscape:snap-global="true"
     inkscape:snap-bbox="true"
     inkscape:snap-bbox-edge-midpoints="true"
     inkscape:snap-bbox-midpoints="true"
     inkscape:bbox-nodes="true"
     inkscape:bbox-paths="true"
     inkscape:snap-object-midpoints="true"
     inkscape:snap-midpoints="true"
     inkscape:snap-smooth-nodes="true"
     inkscape:zoom="4"
     inkscape:cx="70.5"
     inkscape:cy="99.75"
     inkscape:window-width="1920"
     inkscape:window-height="1137"
     inkscape:window-x="-1928"
     inkscape:window-y="-4"
     inkscape:window-maximized="1"
     inkscape:current-layer="layer1"
     width="50mm"
     inkscape:snap-intersection-paths="true"
     inkscape:snap-center="true"
     inkscape:snap-text-baseline="true"
     inkscape:snap-page="true" />
  <defs
     id="defs2">
    <inkscape:path-effect
       effect="copy_rotate"
       starting_point="186.12729,33.701521"
       origin="172.139,33.701521"
       id="path-effect21518"
       is_visible="true"
       lpeversion="1"
       method="normal"
       num_copies="6"
       starting_angle="0"
       rotation_angle="60"
       gap="0"
       copies_to_360="true"
       mirror_copies="false"
       split_items="false" />
    <inkscape:path-effect
       effect="mirror_symmetry"
       start_point="172.06497,33.705655"
       end_point="171.85929,71.717611"
       center_point="171.96213,52.711633"
       id="path-effect21514"
       is_visible="true"
       lpeversion="1.1"
       mode="free"
       discard_orig_path="false"
       fuse_paths="true"
       oposite_fuse="true"
       split_items="false"
       split_open="false" />
    <inkscape:path-effect
       effect="copy_rotate"
       starting_point="186.12729,33.701521"
       origin="172.139,33.701521"
       id="path-effect20005"
       is_visible="true"
       lpeversion="1"
       method="normal"
       num_copies="6"
       starting_angle="0"
       rotation_angle="60"
       gap="0"
       copies_to_360="true"
       mirror_copies="false"
       split_items="false" />
    <inkscape:path-effect
       effect="mirror_symmetry"
       start_point="172.06497,33.705655"
       end_point="171.85929,71.717611"
       center_point="171.96213,52.711633"
       id="path-effect20001"
       is_visible="true"
       lpeversion="1.1"
       mode="free"
       discard_orig_path="false"
       fuse_paths="true"
       oposite_fuse="true"
       split_items="false"
       split_open="false" />
    <inkscape:path-effect
       effect="copy_rotate"
       starting_point="186.10984,33.701521"
       origin="172.139,33.701521"
       id="path-effect12917"
       is_visible="true"
       lpeversion="1"
       method="normal"
       num_copies="6"
       starting_angle="0"
       rotation_angle="60"
       gap="0"
       copies_to_360="true"
       mirror_copies="false"
       split_items="false" />
    <inkscape:path-effect
       effect="mirror_symmetry"
       start_point="172.06496,33.705656"
       end_point="171.85929,71.717611"
       center_point="171.96213,52.711633"
       id="path-effect12913"
       is_visible="true"
       lpeversion="1.1"
       mode="free"
       discard_orig_path="false"
       fuse_paths="true"
       oposite_fuse="true"
       split_items="false"
       split_open="false" />
    <inkscape:path-effect
       effect="copy_rotate"
       starting_point="185.5581,32.79284"
       origin="171.90814,32.79284"
       id="path-effect4425"
       is_visible="true"
       lpeversion="1"
       method="normal"
       num_copies="6"
       starting_angle="0"
       rotation_angle="60"
       gap="0"
       copies_to_360="true"
       mirror_copies="false"
       split_items="false" />
    <inkscape:path-effect
       effect="mirror_symmetry"
       start_point="171.85929,47.43371"
       end_point="171.85929,71.717611"
       center_point="171.85929,59.575662"
       id="path-effect4421"
       is_visible="true"
       lpeversion="1.1"
       mode="X"
       discard_orig_path="false"
       fuse_paths="true"
       oposite_fuse="true"
       split_items="false"
       split_open="false" />
    <inkscape:path-effect
       effect="mirror_symmetry"
       start_point="171.85929,34.731316"
       end_point="171.85929,71.82466"
       center_point="171.85929,53.277988"
       id="path-effect3889"
       is_visible="true"
       lpeversion="1.1"
       mode="X"
       discard_orig_path="false"
       fuse_paths="true"
       oposite_fuse="true"
       split_items="false"
       split_open="false" />
    <inkscape:path-effect
       effect="copy_rotate"
       starting_point="185.99362,33.888167"
       origin="177.67687,33.888167"
       id="path-effect3754"
       is_visible="true"
       lpeversion="1"
       method="normal"
       num_copies="6"
       starting_angle="0"
       rotation_angle="60"
       gap="0"
       copies_to_360="true"
       mirror_copies="false"
       split_items="false" />
    <inkscape:path-effect
       effect="copy_rotate"
       starting_point="83.871009,46.887007"
       origin="76.883345,34.494796"
       id="path-effect3098"
       is_visible="true"
       lpeversion="1"
       method="normal"
       num_copies="6"
       starting_angle="-60.582415"
       rotation_angle="60"
       gap="-0.01"
       copies_to_360="true"
       mirror_copies="false"
       split_items="false" />
    <inkscape:path-effect
       effect="mirror_symmetry"
       start_point="64.737769,24.731527"
       end_point="121.57926,56.984313"
       center_point="93.158514,40.85792"
       id="path-effect1433"
       is_visible="true"
       lpeversion="1.1"
       mode="free"
       discard_orig_path="false"
       fuse_paths="false"
       oposite_fuse="false"
       split_items="false"
       split_open="false" />
    <inkscape:path-effect
       effect="copy_rotate"
       starting_point="56.456699,25.646629"
       origin="40.329777,25.646629"
       id="path-effect1419"
       is_visible="true"
       lpeversion="1"
       method="normal"
       num_copies="6"
       starting_angle="5.2"
       rotation_angle="60"
       gap="-0.01"
       copies_to_360="true"
       mirror_copies="false"
       split_items="false" />
    <inkscape:path-effect
       effect="mirror_symmetry"
       start_point="171.85929,-44.035225"
       end_point="171.85929,71.82466"
       center_point="171.85929,13.894717"
       id="path-effect3889-0"
       is_visible="true"
       lpeversion="1.1"
       mode="X"
       discard_orig_path="false"
       fuse_paths="true"
       oposite_fuse="true"
       split_items="false"
       split_open="false" />
    <inkscape:path-effect
       effect="copy_rotate"
       starting_point="186.65082,32.79284"
       origin="178.33406,32.79284"
       id="path-effect3754-1"
       is_visible="true"
       lpeversion="1"
       method="normal"
       num_copies="6"
       starting_angle="0"
       rotation_angle="60"
       gap="0"
       copies_to_360="true"
       mirror_copies="false"
       split_items="false" />
    <inkscape:path-effect
       effect="mirror_symmetry"
       start_point="171.85929,-44.035225"
       end_point="171.85929,71.82466"
       center_point="171.85929,13.894717"
       id="path-effect4421-6"
       is_visible="true"
       lpeversion="1.1"
       mode="X"
       discard_orig_path="false"
       fuse_paths="true"
       oposite_fuse="true"
       split_items="false"
       split_open="false" />
    <inkscape:path-effect
       effect="copy_rotate"
       starting_point="185.5581,32.79284"
       origin="171.90814,32.79284"
       id="path-effect4425-7"
       is_visible="true"
       lpeversion="1"
       method="normal"
       num_copies="6"
       starting_angle="0"
       rotation_angle="60"
       gap="0"
       copies_to_360="true"
       mirror_copies="false"
       split_items="false" />
    <inkscape:path-effect
       effect="mirror_symmetry"
       start_point="172.06496,33.705656"
       end_point="171.85929,71.717611"
       center_point="171.96213,52.711633"
       id="path-effect12913-5"
       is_visible="true"
       lpeversion="1.1"
       mode="free"
       discard_orig_path="false"
       fuse_paths="true"
       oposite_fuse="true"
       split_items="false"
       split_open="false" />
    <inkscape:path-effect
       effect="copy_rotate"
       starting_point="186.10984,33.701521"
       origin="172.139,33.701521"
       id="path-effect12917-9"
       is_visible="true"
       lpeversion="1"
       method="normal"
       num_copies="6"
       starting_angle="0"
       rotation_angle="60"
       gap="0"
       copies_to_360="true"
       mirror_copies="false"
       split_items="false" />
    <inkscape:path-effect
       effect="mirror_symmetry"
       start_point="172.06496,33.705656"
       end_point="171.85929,71.717611"
       center_point="171.96213,52.711633"
       id="path-effect12913-2"
       is_visible="true"
       lpeversion="1.1"
       mode="free"
       discard_orig_path="false"
       fuse_paths="true"
       oposite_fuse="true"
       split_items="false"
       split_open="false" />
    <inkscape:path-effect
       effect="copy_rotate"
       starting_point="186.10984,33.701521"
       origin="172.139,33.701521"
       id="path-effect12917-5"
       is_visible="true"
       lpeversion="1"
       method="normal"
       num_copies="6"
       starting_angle="0"
       rotation_angle="60"
       gap="0"
       copies_to_360="true"
       mirror_copies="false"
       split_items="false" />
  </defs>
  <g
     inkscape:label="Слой 1"
     inkscape:groupmode="layer"
     id="layer1">
    <path
       id="path872-0-5-5-8"
       style="fill:#000000;stroke-width:0.173244"
       d="M 22.134138,0.09363003 C 21.741027,0.10581597 21.275227,0.2156906 20.996218,0.47090941 20.576622,0.87282561 20.437224,1.0901018 20.437224,2.4530685 v 2.289396 c 0,1.0262805 -0.409598,1.3123088 -1.364643,0.668616 C 18.288408,4.8825445 17.657454,4.4572507 17.044407,4.0440736 16.548738,3.7099909 15.619859,3.499102 14.932992,4.3959763 c -0.643355,0.8400928 -0.342156,1.5979429 0.393858,2.0843455 1.412476,0.9616687 2.924484,1.9809428 4.158886,2.8277404 0.951286,0.6263373 0.942204,0.6392861 0.951488,1.2519608 0.002,0.544204 1.05e-4,1.031073 -0.0065,1.644468 0.0068,0.982667 -0.227734,0.806937 -0.763372,0.462886 -0.201375,-0.12983 -0.436434,-0.290123 -0.678063,-0.462886 C 18.387625,11.77431 17.674503,11.28808 17.405021,11.122729 16.681016,10.726097 16.285895,10.418292 15.279397,9.8321941 14.518927,9.389365 13.946766,9.3824089 13.548651,9.5212343 c -0.444575,0.081085 -1.200096,0.4903127 -1.210349,1.9317417 -0.0083,1.164689 0.05585,1.660564 0.02842,2.485651 0.0052,0.316128 0.06077,1.177972 0.124532,1.914824 0.0256,0.295922 0.044,0.581433 0.05311,0.82088 0.02324,0.636179 0.05513,0.925954 -0.787048,0.419578 C 11.226133,16.78711 10.805526,16.54175 10.338202,16.26288 9.8156937,15.942822 9.7998597,15.943516 9.7453747,14.805865 9.6453937,13.31227 9.5385037,11.491516 9.4303667,9.786175 9.3866897,8.9050333 8.8872967,8.2588903 7.8366537,8.384656 c -1.121667,0.1342734 -1.4122,1.0416509 -1.37715,1.638378 0.04328,0.737999 0.08736,1.496939 0.142789,2.440984 0.06749,1.14974 -0.387068,1.357481 -1.270245,0.834753 L 3.3613422,12.133095 C 2.1884252,11.438881 1.9303299,11.447516 1.3707272,11.603887 1.0089799,11.714 0.67766679,12.059847 0.46695119,12.391946 c -0.1859973,0.346544 -0.3241234,0.804899 -0.2426163,1.174136 0.1382834,0.564336 0.2570281,0.793806 1.43739691,1.475289 l 1.9825023,1.144356 c 0.8887746,0.513139 0.9317616,1.010982 -0.1032006,1.516225 -0.8498346,0.414863 -1.5337148,0.748651 -2.1980564,1.072965 -0.53716331,0.262227 -1.18445471,0.96122 -0.75117251,2.004496 0.4058602,0.977216 1.21321261,1.095312 2.00246031,0.701094 1.5390711,-0.742397 3.1774918,-1.542259 4.5280378,-2.187887 1.018068,-0.510664 1.024983,-0.496239 1.56022,-0.197941 0.472282,0.270399 0.892868,0.515621 1.4208123,0.827986 0.854405,0.485435 0.585048,0.600774 0.01925,0.89261 -0.2131453,0.1095 -0.4692503,0.232422 -0.7396683,0.355286 -0.673364,0.305946 -1.451454,0.680671 -1.72941,0.83137 -0.705501,0.428704 -1.169275,0.61685 -2.180109,1.195453 -0.763939,0.43729 -1.0561296,0.929405 -1.1348671,1.343659 -0.1519878,0.425661 -0.1750296,1.284544 1.0678771,2.01397 1.004521,0.589514 1.465749,0.781809 2.166575,1.218124 0.276292,0.153703 1.05059,0.536429 1.720596,0.849638 0.269083,0.12579 0.525704,0.252288 0.7376373,0.364085 0.562575,0.297945 0.829511,0.41544 -0.03012,0.891603 -0.5312843,0.306628 -0.9540893,0.548498 -1.4292643,0.813769 -0.538428,0.292485 -0.545702,0.306111 -1.558178,-0.21554 -1.343488,-0.660204 -2.974077,-1.477595 -4.5050222,-2.23661 -0.7849327,-0.402731 -1.59384361,-0.293663 -2.01025881,0.679106 -0.4445445,1.038523 0.1959109,1.743906 0.73021291,2.011935 0.6607861,0.331484 1.339906,0.672625 2.1851834,1.096648 1.0294478,0.516413 0.9819107,1.014086 0.087623,1.51758 L 1.5070526,34.66907 c -1.18766311,0.668675 -1.30959001,0.896578 -1.45396931,1.459383 -0.085515,0.368334 0.048519,0.828305 0.2307777,1.176845 0.2071141,0.334352 0.5351142,0.683174 0.89565671,0.79719 0.5578609,0.16242 0.8156682,0.174271 1.9960301,-0.507212 l 1.9824889,-1.144697 c 0.888794,-0.513139 1.341707,-0.301671 1.261772,0.847275 -0.06562,0.94339 -0.118549,1.702819 -0.169844,2.440305 -0.04151,0.596311 0.240082,1.506188 1.360223,1.652592 1.049235,0.137123 1.555041,-0.502631 1.608262,-1.383254 0.126609,-1.704062 0.253355,-3.523203 0.3695,-5.015621 0.06678,-1.137002 0.08244,-1.135529 0.6083983,-1.449909 0.470302,-0.273803 0.893075,-0.515785 1.427566,-0.816821 0.847617,-0.497228 0.812796,-0.206158 0.782649,0.429733 -0.01171,0.23933 -0.03346,0.522876 -0.06227,0.818511 -0.07172,0.736119 -0.136031,1.597078 -0.144485,1.913127 0.01853,0.825333 -0.05048,1.321284 -0.05481,2.48599 -0.0033,0.881711 0.277503,1.380948 0.597554,1.655977 0.293636,0.344218 1.025453,0.791048 2.276551,0.08052 1.01279,-0.575172 1.410211,-0.878409 2.138479,-1.267185 0.271269,-0.162426 0.989833,-0.641876 1.596083,-1.06552 0.243479,-0.170139 0.481395,-0.328811 0.684174,-0.456455 0.53933,-0.338234 0.774371,-0.510514 0.756942,0.472019 -1.06e-4,0.613432 -0.0026,1.100321 -0.01011,1.644471 -0.01591,0.612535 -0.0077,0.625801 -0.965719,1.241807 -1.243496,0.833394 -2.766524,1.836407 -4.189326,2.782737 -0.741245,0.478409 -1.051107,1.233956 -0.41686,2.080962 0.677111,0.904254 1.608092,0.701919 2.107344,0.373219 0.617459,-0.406515 1.252538,-0.823978 2.042395,-1.343993 0.961959,-0.633324 1.369306,-0.3434 1.358201,0.682827 l -0.02435,2.289392 c -0.01473,1.362889 0.122103,1.582155 0.537334,1.988592 0.276219,0.258219 0.741245,0.372342 1.134199,0.388782 0.162052,-0.0052 0.336211,-0.02783 0.504851,-0.06936 V 0.10378049 C 22.22585,0.09919629 22.17938,0.09552669 22.134004,0.09363272 Z m -6.410372,13.93534397 3.573843,2.058293 c 1.139688,0.768145 1.139615,0.768118 1.139615,2.021743 v 4.130121 l -3.601593,-2.13206 c -1.078825,-0.638518 -1.078687,-0.63821 -1.159245,-2.010239 z m -1.607928,8.367154 c 0.290094,0.0033 0.561605,0.159636 1.104433,0.473041 l 3.576889,2.065058 -3.647265,2.052877 c -1.092392,0.615037 -1.092044,0.615245 -2.32054,-0.0013 L 9.3296307,24.910579 12.899404,22.844841 c 0.617545,-0.301461 0.926333,-0.452062 1.216434,-0.449016 z m 7.761134,2.396325 0.12283,0.209785 0.108282,-0.180687 -0.12824,0.225356 0.211482,0.0033 -0.260211,0.002 0.09982,0.179672 -0.128586,-0.219601 -0.102178,0.170539 0.122484,-0.215201 -0.211475,-0.0033 0.260211,-0.002 z m -1.565956,2.909627 -0.0457,4.185266 c -0.01356,1.253554 -0.01336,1.253121 -1.161269,2.00889 l -3.546783,1.993326 -0.0046,-4.124365 c 0.09539,-1.371074 0.09558,-1.371244 1.181246,-1.998059 z" />
    <path
       id="path20109-3-3"
       style="fill:none;fill-opacity:1;stroke:#000000;stroke-width:0.173244;stroke-opacity:1"
       d="M 22.194849,0.08662193 C 21.801744,0.09880787 21.335592,0.20868305 21.056582,0.46390261 20.637005,0.86581945 20.497609,1.083095 20.497609,2.4460611 v 2.2890587 c 0,1.02628 -0.409253,1.3126467 -1.364298,0.6689531 -0.784192,-0.5285358 -1.415492,-0.953829 -2.028519,-1.3670061 -0.495683,-0.3340834 -1.42455,-0.5453101 -2.111416,0.3515641 -0.643375,0.8400928 -0.34217,1.5982802 0.393859,2.0846843 1.412474,0.9616687 2.924483,1.980605 4.158884,2.8274015 0.951286,0.6263364 0.942205,0.6392852 0.95149,1.2519603 0.002,0.544202 0,1.031413 -0.0065,1.644807 0.0068,0.982667 -0.227746,0.806934 -0.763364,0.462887 -0.201381,-0.129833 -0.436455,-0.290126 -0.678063,-0.462887 -0.60168,-0.43018 -1.314809,-0.91675 -1.58429,-1.082102 -0.724019,-0.39663 -1.11912,-0.704097 -2.125618,-1.2901955 -0.761707,-0.4435491 -1.334262,-0.4501489 -1.732448,-0.3106219 -0.444872,0.082021 -1.198087,0.4922874 -1.208307,1.9314044 -0.0083,1.164688 0.05585,1.660564 0.02842,2.485651 0.0052,0.316129 0.06077,1.177966 0.124532,1.914824 0.0256,0.295923 0.04393,0.581094 0.05311,0.820541 0.02324,0.636179 0.05512,0.926287 -0.787035,0.419911 -0.53122,-0.306798 -0.952154,-0.552492 -1.419484,-0.831369 C 9.8760397,15.935476 9.8605537,15.93617 9.8060887,14.798519 9.7060967,13.304922 9.5988697,11.484171 9.4907267,9.7788295 9.4470497,8.8976877 8.9479907,8.2515447 7.8973477,8.3773115 c -1.121668,0.1342723 -1.412181,1.0419888 -1.377151,1.6387135 0.04335,0.738001 0.08736,1.496602 0.142789,2.440649 0.06749,1.149736 -0.387394,1.357479 -1.270578,0.834753 L 3.4220928,12.12575 C 2.2491561,11.431537 1.9910544,11.440171 1.4314582,11.596542 1.069724,11.706655 0.73841089,12.0525 0.52768229,12.384601 c -0.1859974,0.346544 -0.3241236,0.805236 -0.2426163,1.174474 0.1382833,0.564338 0.257028,0.793466 1.43739031,1.474943 l 1.9825088,1.144703 c 0.8887746,0.513139 0.9317736,1.010976 -0.1032006,1.516225 -0.8498216,0.414857 -1.5337018,0.748651 -2.1980434,1.072964 -0.53715681,0.262228 -1.18446771,0.961214 -0.75118521,2.00449 0.40585991,0.977224 1.21321241,1.095313 2.00246011,0.701102 1.539071,-0.742405 3.1774927,-1.542266 4.5280577,-2.187888 1.018049,-0.510664 1.024636,-0.496246 1.559874,-0.197947 0.472261,0.270398 0.893195,0.515287 1.4211373,0.82765 0.854426,0.485436 0.585048,0.600775 0.01925,0.892611 -0.2131453,0.109501 -0.4695773,0.232755 -0.7400153,0.355625 -0.673345,0.305941 -1.451114,0.680666 -1.729049,0.831371 -0.705501,0.428705 -1.169277,0.616843 -2.180103,1.195455 -0.76451,0.43761 -1.0567389,0.929887 -1.1352342,1.344332 -0.1516802,0.425968 -0.1738184,1.284374 1.0682372,2.01329 1.004507,0.58952 1.465755,0.781816 2.166561,1.218123 0.276305,0.153704 1.050592,0.536429 1.720609,0.849645 0.26907,0.125784 0.525693,0.252281 0.7376393,0.364084 0.562582,0.297946 0.829478,0.415433 -0.03012,0.891597 -0.5312853,0.306628 -0.9544173,0.548158 -1.4295923,0.813435 -0.538447,0.292486 -0.545702,0.306445 -1.558178,-0.2152 -1.343488,-0.660204 -2.9737499,-1.477941 -4.504695,-2.23695 -0.7849328,-0.402731 -1.59417761,-0.293329 -2.01058621,0.67944 -0.4445443,1.038531 0.1962514,1.743914 0.73054031,2.011942 0.6607861,0.331476 1.339906,0.672618 2.1851835,1.096648 1.0294477,0.516413 0.9819105,1.014087 0.087642,1.517581 l -1.9946877,1.123376 c -1.18767621,0.668676 -1.30925611,0.896914 -1.45362231,1.459718 -0.085514,0.368341 0.048192,0.828306 0.2304177,1.176846 0.2071139,0.334357 0.5354807,0.682839 0.89600361,0.796856 0.5578609,0.162419 0.8156681,0.174271 1.99603,-0.507214 l 1.9825091,-1.144361 c 0.888774,-0.513139 1.341359,-0.301665 1.261424,0.847274 -0.06562,0.943396 -0.118549,1.702479 -0.169864,2.439972 -0.04151,0.59631 0.240096,1.506523 1.360243,1.652924 1.049217,0.137131 1.555389,-0.502963 1.608609,-1.383586 0.126589,-1.704062 0.253008,-3.522863 0.369147,-5.015287 0.06678,-1.136996 0.08278,-1.135864 0.6087313,-1.450243 0.470304,-0.273804 0.892742,-0.515793 1.427242,-0.816822 0.847594,-0.497227 0.812772,-0.206157 0.782646,0.429728 -0.01178,0.239336 -0.03314,0.522882 -0.06194,0.818516 -0.07172,0.736118 -0.136365,1.597072 -0.144818,1.913128 0.01853,0.825333 -0.05016,1.321284 -0.05448,2.48599 -0.0033,0.881048 0.277143,1.380135 0.596899,1.655295 0.293074,0.344343 1.024983,0.792698 2.277207,0.08155 1.01279,-0.575173 1.41021,-0.87875 2.138477,-1.267527 0.271262,-0.162424 0.989833,-0.641535 1.596082,-1.065185 0.243481,-0.170132 0.481396,-0.328812 0.684176,-0.456455 0.53933,-0.338234 0.774384,-0.510854 0.75694,0.471685 -1.04e-4,0.613432 -0.0026,1.100655 -0.01022,1.644805 -0.01592,0.612543 -0.0076,0.625808 -0.965698,1.241814 -1.243496,0.833386 -2.766538,1.836407 -4.189346,2.782738 -0.741239,0.478408 -1.051435,1.233614 -0.417207,2.08062 0.67713,0.904254 1.60844,0.70226 2.107697,0.37356 0.617471,-0.406522 1.252538,-0.823977 2.042388,-1.343998 0.961959,-0.633325 1.369325,-0.343394 1.35822,0.682825 l -0.02435,2.289059 c -0.01473,1.362889 0.122122,1.582154 0.53734,1.988592 0.276232,0.258219 0.741239,0.372341 1.134213,0.388782 0.393105,-0.01218 0.859257,-0.122064 1.138265,-0.377279 0.419578,-0.401917 0.558641,-0.619194 0.558641,-1.982161 v -2.289059 c 0,-1.026278 0.409585,-1.312646 1.36463,-0.66895 0.784194,0.528532 1.415147,0.953826 2.028187,1.367 0.495669,0.334083 1.424556,0.545316 2.111415,-0.351558 0.643363,-0.840098 0.342163,-1.598283 -0.39387,-2.084688 -1.412456,-0.961665 -2.924465,-1.980603 -4.158866,-2.827399 -0.951287,-0.626339 -0.942205,-0.639285 -0.951496,-1.251963 -0.002,-0.544203 7.2e-5,-1.031412 0.0068,-1.644805 -0.0068,-0.98267 0.227733,-0.806933 0.763351,-0.462885 0.201398,0.12983 0.436125,0.29012 0.677751,0.462885 0.60164,0.430178 1.315097,0.916747 1.584579,1.082098 0.724019,0.396634 1.11912,0.704101 2.125617,1.290195 0.76089,0.443078 1.33296,0.450025 1.731093,0.310964 0.444689,-0.08141 1.199442,-0.491106 1.209663,-1.931744 0.0083,-1.164687 -0.05585,-1.660225 -0.02842,-2.48531 -0.0052,-0.316129 -0.06076,-1.177965 -0.124527,-1.914825 -0.02559,-0.29592 -0.04393,-0.581432 -0.05311,-0.820879 -0.02324,-0.63618 -0.05513,-0.926287 0.787034,-0.419911 0.5312,0.306798 0.951805,0.552491 1.419129,0.831363 0.522509,0.320058 0.538342,0.319364 0.592806,1.457014 0.100003,1.493597 0.206872,3.314347 0.315029,5.019687 0.04368,0.88114 0.543069,1.527286 1.593712,1.401521 1.121668,-0.134275 1.412181,-1.041993 1.377151,-1.638716 -0.04334,-0.737998 -0.08737,-1.496601 -0.142789,-2.440646 -0.06749,-1.149737 0.387068,-1.35748 1.270231,-0.834755 l 1.97065,1.165676 c 1.172938,0.694212 1.43104,0.685582 1.990635,0.529208 0.361748,-0.110109 0.693048,-0.455958 0.903783,-0.788057 0.185991,-0.346543 0.324117,-0.805237 0.24261,-1.174475 -0.138284,-0.564337 -0.257028,-0.793465 -1.437391,-1.474949 l -1.982509,-1.144696 c -0.888774,-0.513139 -0.931774,-1.010982 0.10321,-1.516226 0.849816,-0.414856 1.533696,-0.74865 2.198037,-1.072964 0.537158,-0.262227 1.184468,-0.96122 0.751186,-2.00449 -0.40586,-0.977222 -1.213213,-1.095318 -2.002461,-0.7011 -1.53907,0.742398 -3.177492,1.542266 -4.528037,2.187887 -1.018068,0.510664 -1.024983,0.49658 -1.560221,0.19828 -0.472281,-0.270398 -0.892867,-0.51562 -1.42081,-0.827983 -0.854406,-0.485436 -0.585048,-0.600777 -0.01925,-0.892613 0.213144,-0.109499 0.469235,-0.232755 0.739667,-0.355624 0.673364,-0.30594 1.451462,-0.680665 1.72941,-0.83137 0.705487,-0.428705 1.169283,-0.616844 2.180089,-1.195454 0.764129,-0.437389 1.056241,-0.929346 1.134893,-1.343659 0.151897,-0.425738 0.174821,-1.284675 -1.067883,-2.013965 -1.00452,-0.589518 -1.465748,-0.781815 -2.166574,-1.218123 -0.276306,-0.153703 -1.050585,-0.536096 -1.72059,-0.849303 -0.269082,-0.125791 -0.525711,-0.252622 -0.737657,-0.364426 -0.562575,-0.297945 -0.829478,-0.415433 0.03012,-0.891596 0.531289,-0.306629 0.954088,-0.548164 1.429263,-0.813437 0.538427,-0.292483 0.545702,-0.306443 1.558179,0.215201 1.343474,0.660203 2.974083,1.477941 4.505029,2.236951 0.784933,0.40273 1.593843,0.293329 2.010239,-0.679441 0.444564,-1.038529 -0.195905,-1.743912 -0.730194,-2.011941 -0.660786,-0.331477 -1.339905,-0.672618 -2.185177,-1.096648 -1.029454,-0.516413 -0.981918,-1.014086 -0.08765,-1.517581 l 1.994327,-1.123379 c 1.187663,-0.668677 1.309243,-0.896913 1.453629,-1.459724 0.0855,-0.368333 -0.04819,-0.827963 -0.230438,-1.176503 -0.207114,-0.334356 -0.535133,-0.683175 -0.895656,-0.797194 -0.557861,-0.162418 -0.815667,-0.174269 -1.99603,0.507213 l -1.982509,1.144364 c -0.888774,0.513139 -1.341707,0.301664 -1.261771,-0.847277 0.06564,-0.943393 0.118554,-1.70248 0.16987,-2.43997 0.04151,-0.5963101 -0.240083,-1.5061875 -1.360231,-1.6525877 -1.049235,-0.1371272 -1.55506,0.5026268 -1.608281,1.3832471 -0.126589,1.7040676 -0.253348,3.5232056 -0.369493,5.0156246 -0.06677,1.137002 -0.08243,1.135529 -0.608383,1.449909 -0.470305,0.273804 -0.893091,0.515785 -1.427569,0.816821 -0.847615,0.497228 -0.812793,0.206158 -0.782648,-0.429727 0.01178,-0.239335 0.03314,-0.522882 0.06195,-0.818516 0.07172,-0.736119 0.136365,-1.597078 0.144831,-1.91313 -0.01853,-0.825333 0.05048,-1.32128 0.05481,-2.485988 0.0033,-0.881046 -0.277124,-1.380137 -0.596881,-1.6552958 -0.293092,-0.3443421 -1.025349,-0.7926993 -2.277553,-0.081551 -1.012809,0.5751718 -1.409882,0.8787518 -2.13815,1.2675248 -0.271263,0.162426 -0.989834,0.641539 -1.596083,1.065183 -0.243474,0.170137 -0.481396,0.328812 -0.684175,0.456458 -0.539331,0.338231 -0.774385,0.510851 -0.756941,-0.471685 1.05e-4,-0.613429 0.0026,-1.100657 0.01022,-1.644807 0.01592,-0.6125393 0.0073,-0.6258026 0.96537,-1.2418092 1.243438,-0.8333892 2.766806,-1.8364086 4.189614,-2.7827373 0.741239,-0.4784096 1.051108,-1.2336191 0.41686,-2.0806238 C 28.672769,3.5611852 27.741788,3.7631821 27.242536,4.0918825 26.625058,4.4984004 25.989992,4.9158612 25.200142,5.435879 24.238173,6.0692002 23.830828,5.7792734 23.841933,4.7530529 l 0.02436,-2.2890586 C 23.881027,1.101108 23.744173,0.8818399 23.328956,0.47540715 23.052736,0.2171835 22.587716,0.10306218 22.194742,0.08662193 Z m -6.410365,13.93500407 3.57349,2.058288 c 1.139707,0.76815 1.139635,0.768465 1.139635,2.02209 v 4.130114 l -3.601247,-2.132055 c -1.078845,-0.638516 -1.078701,-0.638214 -1.159246,-2.010245 z m 12.621127,0.09576 0.0046,4.124707 c -0.09538,1.371073 -0.09591,1.37091 -1.18158,1.997719 l -3.576542,2.064724 0.0457,-4.184593 c 0.01348,-1.253553 0.01336,-1.253461 1.161276,-2.00923 z m -14.229062,8.271402 c 0.290101,0.0033 0.561607,0.159977 1.104433,0.473382 l 3.57689,2.065057 -3.647259,2.052878 c -1.092392,0.615029 -1.092051,0.615272 -2.320527,-0.0013 L 9.3903437,24.903592 12.960135,22.83786 c 0.617524,-0.301468 0.926333,-0.452401 1.216414,-0.449356 z m 15.745621,0.169864 c 0.290029,1.25e-4 0.597108,0.154063 1.21136,0.46221 l 3.499729,2.075214 -3.569771,2.066071 c -1.235096,0.60293 -1.235194,0.602445 -2.320868,-0.02436 l -3.576889,-2.065057 3.647258,-2.052878 c 0.546207,-0.307518 0.819151,-0.461319 1.109181,-0.461196 z m -7.990216,2.216986 0.12858,0.219601 0.101499,-0.169182 -0.121809,0.213845 0.197607,0.0033 -0.246336,0.0013 0.09712,0.17528 -0.125534,-0.214868 -0.111674,0.186103 0.131632,-0.231105 -0.197274,-0.0033 0.245996,-0.0013 z m -1.56022,2.919435 -0.0457,4.184934 c -0.0135,1.253553 -0.01336,1.253462 -1.161276,2.009231 l -3.546762,1.992984 -0.0046,-4.124365 c 0.09539,-1.371074 0.09556,-1.37091 1.181225,-1.997726 z m 3.154259,0.07275 3.601261,2.132054 c 1.078831,0.638518 1.078687,0.638217 1.159251,2.010239 l -0.0474,4.068199 -3.573838,-2.058287 C 23.52558,33.151877 23.52598,33.151564 23.52598,31.897937 Z" />
  </g>
</svg>
