<?xml version="1.0" encoding="UTF-8" standalone="no"?>
<!-- Created with Inkscape (http://www.inkscape.org/) -->

<svg
   width="200mm"
   height="200mm"
   viewBox="0 0 200 200"
   version="1.1"
   id="svg5"
   inkscape:version="1.1.2 (b8e25be833, 2022-02-05)"
   sodipodi:docname="logout.svg"
   xmlns:inkscape="http://www.inkscape.org/namespaces/inkscape"
   xmlns:sodipodi="http://sodipodi.sourceforge.net/DTD/sodipodi-0.dtd"
   xmlns="http://www.w3.org/2000/svg"
   xmlns:svg="http://www.w3.org/2000/svg">
  <sodipodi:namedview
     id="namedview7"
     pagecolor="#ffffff"
     bordercolor="#666666"
     borderopacity="1.0"
     inkscape:pageshadow="2"
     inkscape:pageopacity="0.0"
     inkscape:pagecheckerboard="0"
     inkscape:document-units="mm"
     showgrid="false"
     inkscape:zoom="0.64052329"
     inkscape:cx="412.163"
     inkscape:cy="376.25486"
     inkscape:window-width="1920"
     inkscape:window-height="1137"
     inkscape:window-x="-1928"
     inkscape:window-y="-4"
     inkscape:window-maximized="1"
     inkscape:current-layer="g837"
     inkscape:snap-global="false" />
  <defs
     id="defs2" />
  <g
     inkscape:label="Шар 1"
     inkscape:groupmode="layer"
     id="layer1">
    <g
       id="g1456"
       transform="translate(-7.0100934,38.555514)">
      <g
         id="g837"
         transform="translate(16.648972,16.064797)">
        <path
           style="fill:#b7bdc7;stroke-width:0.264583"
           d="m -121.21376,75.546029 -0.50402,-0.595313 0.59531,0.504029 c 0.55945,0.473662 0.71576,0.686596 0.50403,0.686596 -0.0502,0 -0.3181,-0.26789 -0.59532,-0.595312 z m -3.50496,-8.400521 c 0,-0.363802 0.0601,-0.51263 0.13346,-0.330729 0.0734,0.181901 0.0734,0.479557 0,0.661458 -0.0734,0.181901 -0.13346,0.03307 -0.13346,-0.330729 z M 83.752068,-2.3296672 c 0.0127,-0.3082264 0.07539,-0.3709194 0.159851,-0.1598533 0.07643,0.1909948 0.06703,0.4192005 -0.02088,0.5071189 -0.08792,0.087918 -0.150453,-0.068352 -0.138965,-0.3472656 z M 54.82545,-14.015168 c 3.237838,-0.04209 8.53612,-0.04209 11.773958,0 3.237839,0.04209 0.588698,0.07653 -5.886979,0.07653 -6.475677,0 -9.124818,-0.03444 -5.886979,-0.07653 z m -5.957888,-24.143494 c 0,-0.509323 0.05445,-0.717683 0.121002,-0.463021 0.06655,0.254661 0.06655,0.67138 0,0.926042 -0.06655,0.254661 -0.121002,0.0463 -0.121002,-0.463021 z m -0.305078,-2.271006 c 0.0127,-0.308227 0.07539,-0.37092 0.159851,-0.159854 0.07643,0.190995 0.06703,0.419198 -0.02088,0.507119 -0.08792,0.08792 -0.150452,-0.06835 -0.138964,-0.347265 z m -6.635472,-12.942537 c -0.642681,-0.654843 -1.10898,-1.190625 -1.03622,-1.190625 0.07276,0 0.658122,0.535782 1.300803,1.190625 0.642681,0.654844 1.10898,1.190626 1.03622,1.190626 -0.07276,0 -0.658122,-0.535782 -1.300803,-1.190626 z m -12.485027,-6.398448 c 0.190995,-0.07643 0.419201,-0.06703 0.507119,0.02088 0.08792,0.08792 -0.06835,0.150453 -0.347265,0.138964 -0.308227,-0.0127 -0.37092,-0.07539 -0.159854,-0.15985 z m -1.995876,-0.267197 c 0.257432,-0.06708 0.614619,-0.06267 0.79375,0.0098 0.179131,0.07248 -0.03149,0.127363 -0.468056,0.12197 -0.436562,-0.0054 -0.583126,-0.06469 -0.325694,-0.131773 z m -45.90716,-0.268359 c 0.329118,-0.06329 0.805368,-0.06088 1.058334,0.0053 0.252965,0.06622 -0.01633,0.118004 -0.598398,0.115067 -0.582083,-0.0029 -0.789054,-0.05712 -0.459936,-0.120407 z m -2.384335,-0.252682 c 0.181901,-0.0734 0.479558,-0.0734 0.661459,0 0.181901,0.0734 0.03307,0.133453 -0.33073,0.133453 -0.363802,0 -0.51263,-0.06005 -0.330729,-0.133453 z m -103.598944,-1.544564 c 0.005,-0.436562 0.0647,-0.583126 0.13177,-0.325694 0.0671,0.257432 0.0627,0.614619 -0.01,0.79375 -0.0725,0.179131 -0.12736,-0.03149 -0.12197,-0.468056 z m 0.23389,-1.874131 c 0.0127,-0.308226 0.0754,-0.370919 0.15985,-0.159853 0.0764,0.190995 0.067,0.4192 -0.0209,0.507119 -0.0879,0.08792 -0.15046,-0.06835 -0.13897,-0.347266 z m 91.775291,-2.425348 -0.9118,-0.992188 0.992188,0.9118 c 0.545703,0.501488 0.992187,0.947973 0.992187,0.992187 0,0.202041 -0.223895,0.01172 -1.072575,-0.911799 z m -87.298261,-7.838958 c 0,-0.05494 0.20836,-0.263301 0.46302,-0.46302 0.41965,-0.329108 0.429,-0.31975 0.0999,0.09989 -0.34565,0.440729 -0.56292,0.580887 -0.56292,0.363126 z m 75.513406,-3.670418 -0.504028,-0.595312 0.595312,0.504028 c 0.559446,0.473662 0.715762,0.686597 0.504029,0.686597 -0.05021,0 -0.318098,-0.267891 -0.595313,-0.595313 z m -1.46382,-1.190625 c -0.329107,-0.419644 -0.319749,-0.429002 0.0999,-0.09989 0.44073,0.345643 0.580887,0.562915 0.363125,0.562915 -0.05494,0 -0.2633,-0.208359 -0.463021,-0.463021 z m -60.340856,-3.686469 c 0.19099,-0.07643 0.41919,-0.06703 0.50711,0.02089 0.0879,0.08792 -0.0683,0.150453 -0.34726,0.138965 -0.30823,-0.01269 -0.37092,-0.07539 -0.15985,-0.159853 z m 1.5875,-0.264584 c 0.19099,-0.07643 0.41919,-0.06703 0.50711,0.02089 0.0879,0.08792 -0.0683,0.150453 -0.34726,0.138965 -0.30823,-0.0127 -0.37092,-0.07539 -0.15985,-0.159853 z m 48.947913,0 c 0.190995,-0.07643 0.419201,-0.06703 0.507119,0.02089 0.08792,0.08792 -0.06835,0.150453 -0.347266,0.138965 -0.308226,-0.0127 -0.370919,-0.07539 -0.159853,-0.159853 z m -35.735287,-0.282206 c 6.293776,-0.03951 16.592682,-0.03951 22.886459,0 6.293776,0.03951 1.144323,0.07184 -11.44323,0.07184 -12.587552,0 -17.737006,-0.03233 -11.443229,-0.07184 z"
           id="path847" />
        <path
           style="fill:#909aa9;stroke-width:0.264583"
           d="m -42.276636,-14.015422 c 16.771276,-0.03761 44.2151832,-0.03761 60.98646,0 16.771276,0.03761 3.049323,0.06838 -30.49323,0.06838 -33.542553,0 -47.264507,-0.03077 -30.49323,-0.06838 z"
           id="path843" />
        <g
           id="g858"
           transform="matrix(0.91746138,0,0,0.91746138,-81.171307,5.1482296)">
          <path
             style="fill:#a3aab7;stroke-width:0.264583"
             d="m 130.1015,127.30463 c -4.57227,-0.34092 -9.86065,-1.70691 -13.36146,-3.45129 -8.80011,-4.38489 -15.63151,-12.6823 -18.022605,-21.89023 -1.172006,-4.513303 -1.150205,-3.465405 -1.155071,-55.521366 -0.0048,-50.8877425 -0.0033,-50.9613601 1.06512,-55.2163045 2.865436,-11.4111035 12.073846,-21.0458865 23.139636,-24.2110465 5.0941,-1.457074 5.67493,-1.504995 19.88339,-1.640531 14.17053,-0.135173 16.06861,-0.0241 18.48119,1.081535 3.1983,1.465699 5.80829,5.020884 6.49113,8.841843 0.60997,3.413159 -0.69011,7.126811 -3.46716,9.903857 -1.7845,1.7845 -3.74207,2.782908 -6.13503,3.129015 -0.90829,0.131368 -7.3069,0.242663 -14.21914,0.247314 -13.62076,0.0092 -14.02745,0.04534 -16.66827,1.4826588 -1.52722,0.831223 -3.46693,2.837135 -4.27482,4.4207297 -1.30404,2.5561237 -1.27268,1.2745006 -1.27341,52.0425405 -5.3e-4,41.082182 0.0524,47.717686 0.39227,49.159472 0.47954,2.034032 0.95708,2.996448 2.2686,4.572043 1.31061,1.5745 2.7216,2.53438 4.87376,3.31557 l 1.74135,0.63208 12.75411,0.002 c 7.58426,0.001 13.45123,0.11406 14.47391,0.27847 4.88932,0.786 8.61623,4.58588 9.53383,9.7205 0.60997,3.41316 -0.69011,7.12681 -3.46716,9.90385 -1.7845,1.7845 -3.74207,2.78291 -6.13503,3.12902 -1.50884,0.21823 -24.13819,0.27562 -26.91914,0.0683 z m 93.08372,-23.28285 c 0.191,-0.0764 0.4192,-0.067 0.50712,0.0209 0.0879,0.0879 -0.0684,0.15045 -0.34727,0.13896 -0.30822,-0.0127 -0.37092,-0.0754 -0.15985,-0.15985 z m -6.31463,-3.1927 -0.9118,-0.992184 0.99219,0.911804 c 0.5457,0.50148 0.99218,0.94797 0.99218,0.99218 0,0.20204 -0.22389,0.0117 -1.07257,-0.9118 z m 19.7257,-2.711976 c 1.59576,-1.600729 2.96092,-2.910416 3.03368,-2.910416 0.0728,0 -1.17333,1.309687 -2.7691,2.910416 -1.59576,1.600729 -2.96092,2.910416 -3.03368,2.910416 -0.0728,0 1.17333,-1.309687 2.7691,-2.910416 z m -23.37385,-4.233333 c 0,-0.363802 0.06,-0.51263 0.13345,-0.330729 0.0734,0.181901 0.0734,0.479557 0,0.661458 -0.0734,0.181901 -0.13345,0.03307 -0.13345,-0.330729 z m 52.61031,-25.267708 c 5.45557,-5.457031 9.97876,-9.921875 10.05152,-9.921875 0.0728,0 -4.33136,4.464844 -9.78694,9.921875 -5.45558,5.457031 -9.97876,9.921875 -10.05152,9.921875 -0.0728,0 4.33136,-4.464844 9.78694,-9.921875 z M 164.7123,69.361365 c 0.191,-0.07643 0.4192,-0.06703 0.50712,0.02088 0.0879,0.08792 -0.0684,0.150453 -0.34726,0.138964 -0.30823,-0.0127 -0.37092,-0.07539 -0.15986,-0.15985 z m -1.32291,-0.264583 c 0.19099,-0.07643 0.4192,-0.06703 0.50712,0.02088 0.0879,0.08792 -0.0684,0.150452 -0.34727,0.138964 -0.30823,-0.0127 -0.37092,-0.07539 -0.15985,-0.159851 z m -4.86183,-2.795823 -0.77711,-0.859896 0.8599,0.777105 c 0.80154,0.724371 0.98151,0.942687 0.7771,0.942687 -0.0455,0 -0.43248,-0.386953 -0.85989,-0.859896 z m -3.22926,-7.342187 c 0,-0.509323 0.0544,-0.717683 0.121,-0.463021 0.0666,0.254661 0.0666,0.67138 0,0.926041 -0.0666,0.254662 -0.121,0.0463 -0.121,-0.46302 z m 126.9595,-10.47309 c 0.0127,-0.308226 0.0754,-0.370919 0.15985,-0.159853 0.0764,0.190995 0.067,0.419201 -0.0209,0.507119 -0.0879,0.08792 -0.15045,-0.06835 -0.13897,-0.347266 z m 0.29528,-2.094618 c 0.005,-0.436563 0.0647,-0.583126 0.13177,-0.325695 0.0671,0.257432 0.0627,0.61462 -0.01,0.79375 -0.0725,0.179131 -0.12737,-0.03149 -0.12198,-0.468055 z m -0.29528,-2.138715 c 0.0127,-0.308226 0.0754,-0.370919 0.15985,-0.159853 0.0764,0.190995 0.067,0.4192 -0.0209,0.507119 -0.0879,0.08792 -0.15045,-0.06835 -0.13897,-0.347266 z m -2.96505,-6.394098 c -0.32911,-0.419645 -0.31975,-0.429003 0.0999,-0.0999 0.25466,0.199721 0.46302,0.40808 0.46302,0.463021 0,0.217763 -0.21727,0.0776 -0.56291,-0.363125 z M 155.30363,33.691064 c 0.003,-0.582084 0.0571,-0.789054 0.12041,-0.459936 0.0633,0.329118 0.0609,0.805368 -0.005,1.058333 -0.0662,0.252966 -0.11801,-0.01633 -0.11507,-0.598397 z M 265.03774,23.306168 254.58796,12.788981 265.10514,23.238765 c 9.77506,9.712415 10.63613,10.58459 10.44979,10.58459 -0.0371,0 -4.76981,-4.732734 -10.51719,-10.517187 z M 158.6765,26.282731 c 0.49365,-0.509323 0.95708,-0.926042 1.02984,-0.926042 0.0728,0 -0.27161,0.416719 -0.76526,0.926042 -0.49366,0.509322 -0.95709,0.926041 -1.02985,0.926041 -0.0728,0 0.27161,-0.416719 0.76527,-0.926041 z m 6.01927,-2.953354 c 0.1819,-0.0734 0.47955,-0.0734 0.66145,0 0.18191,0.0734 0.0331,0.133454 -0.33072,0.133454 -0.36381,0 -0.51263,-0.06006 -0.33073,-0.133454 z m 48.50578,-24.32077707 c 0.0127,-0.30822633 0.0754,-0.37091933 0.15985,-0.15985333 0.0764,0.19099479 0.067,0.41919791 -0.0209,0.50711895 -0.0879,0.0879184 -0.15046,-0.0683525 -0.13897,-0.34726562 z m 22.86106,-4.93888973 -2.9059,-2.9765624 2.97656,2.9059055 c 2.76475,2.6991177 3.0967,3.0472194 2.9059,3.0472194 -0.0389,0 -1.37831,-1.3394531 -2.97656,-2.9765625 z m -19.17778,-2.1828124 c 0.49365,-0.5093229 0.95709,-0.9260417 1.02985,-0.9260417 0.0728,0 -0.27161,0.4167188 -0.76527,0.9260417 -0.49365,0.5093229 -0.95708,0.9260416 -1.02984,0.9260416 -0.0728,0 0.27161,-0.4167187 0.76526,-0.9260416 z m 6.03581,-3.2234478 c 0.19099,-0.07643 0.4192,-0.06703 0.50712,0.02088 0.0879,0.08792 -0.0684,0.150452 -0.34727,0.138964 -0.30823,-0.0127 -0.37092,-0.07539 -0.15985,-0.159851 z"
             id="path862" />
          <path
             style="fill:#1d2f4f;stroke-width:0.264583"
             d="m 222.70566,103.91202 c -4.35458,-0.85042 -8.3713,-5.075397 -9.25493,-9.734778 -0.15795,-0.832843 -0.27007,-6.242085 -0.27007,-13.029584 V 69.542105 l -23.74635,-0.0039 c -25.45102,-0.0042 -25.54336,-0.0086 -28.15789,-1.342427 -1.46224,-0.745982 -3.48296,-2.673673 -4.34545,-4.14541 -1.4612,-2.493338 -1.50404,-2.915298 -1.62446,-15.999319 -0.11777,-12.796038 0.028,-15.435577 0.99511,-18.020453 1.18401,-3.164546 4.72245,-5.938126 8.328,-6.527848 0.95286,-0.15585 10.97492,-0.260262 25.06927,-0.261183 l 23.48177,-0.0015 V 11.634469 c 0,-6.7874993 0.11212,-12.19674137 0.27007,-13.0295835 0.65742,-3.4666052 3.38649,-7.1824505 6.37005,-8.6733535 3.94789,-1.972786 8.36947,-1.77115 12.18396,0.5556274 0.71502,0.4361497 11.00984,10.62623 24.6085,24.3581236 25.52637,25.776475 24.46666,24.581939 25.52066,28.767656 0.78114,3.102131 0.0869,6.904534 -1.80772,9.900515 -1.12996,1.786842 -46.63581,47.730506 -48.39165,48.857226 -2.45979,1.57844 -6.00611,2.17072 -9.22887,1.54134 z"
             id="path860" />
        </g>
      </g>
    </g>
  </g>
</svg>
