<?xml version="1.0" encoding="UTF-8" standalone="no"?>
<!-- Created with Inkscape (http://www.inkscape.org/) -->

<svg
   width="200mm"
   height="200mm"
   viewBox="0 0 200 200"
   version="1.1"
   id="svg5"
   inkscape:version="1.1.2 (b8e25be833, 2022-02-05)"
   sodipodi:docname="merge.svg"
   xmlns:inkscape="http://www.inkscape.org/namespaces/inkscape"
   xmlns:sodipodi="http://sodipodi.sourceforge.net/DTD/sodipodi-0.dtd"
   xmlns="http://www.w3.org/2000/svg"
   xmlns:svg="http://www.w3.org/2000/svg">
  <sodipodi:namedview
     id="namedview7"
     pagecolor="#ffffff"
     bordercolor="#666666"
     borderopacity="1.0"
     inkscape:pageshadow="2"
     inkscape:pageopacity="0.0"
     inkscape:pagecheckerboard="0"
     inkscape:document-units="mm"
     showgrid="false"
     inkscape:zoom="0.90583672"
     inkscape:cx="311.31438"
     inkscape:cy="376.44753"
     inkscape:window-width="1920"
     inkscape:window-height="1137"
     inkscape:window-x="-1928"
     inkscape:window-y="-4"
     inkscape:window-maximized="1"
     inkscape:current-layer="g1456" />
  <defs
     id="defs2" />
  <g
     inkscape:label="Шар 1"
     inkscape:groupmode="layer"
     id="layer1">
    <g
       id="g1456"
       transform="translate(-7.0100934,38.555514)">
      <path
         style="fill:#a3aab7;stroke-width:0.285726"
         d="M 16.983028,136.8249 C 6.3272755,135.02967 3.6506015,119.76339 12.961083,113.88594 c 2.333041,-1.47278 1.919867,-1.44629 25.228423,-1.61776 24.682017,-0.18157 23.022966,-0.0243 26.602184,-2.52099 1.815549,-1.26643 38.9685,-47.29774 38.64035,-47.874164 -0.1028,-0.180594 0.89409,0.709801 2.21532,1.978658 6.03786,5.798487 12.66396,9.111574 20.54587,10.273039 2.25164,0.331803 2.31889,0.360172 0.92251,0.3892 l -1.50617,0.03132 -19.8183,24.78676 C 94.891199,112.96471 85.280843,124.82594 84.434922,125.69025 c -5.972813,6.10272 -12.239781,9.33657 -21.058454,10.86648 -3.441683,0.59708 -43.081149,0.82621 -46.39344,0.26818 z m 140.134332,-55.347864 -0.0657,-6.640198 -12.78625,-0.07743 -12.78625,-0.07743 12.79521,-0.06836 c 10.14398,-0.05421 12.82415,0.0065 12.93476,0.295205 0.0768,0.199999 0.10227,3.253695 0.0567,6.786008 l -0.0828,6.422369 z m 50.00849,-19.360908 c 0.003,-0.628599 0.0617,-0.852108 0.13003,-0.49669 0.0684,0.355418 0.0658,0.869726 -0.005,1.142905 -0.0715,0.273181 -0.12743,-0.01764 -0.12425,-0.646215 z M 191.19477,41.043807 178.62403,28.400415 191.26742,40.971158 c 6.95387,6.913907 12.64339,12.603434 12.64339,12.643393 0,0.201031 -1.03188,-0.81906 -12.71604,-12.570744 z m -47.64892,8.43042 13.49532,-0.07851 0.085,-6.640343 0.085,-6.640344 -0.009,6.71457 -0.009,6.714569 -13.57201,0.0043 -13.57199,0.0043 13.49531,-0.07851 z M 169.26648,24.62719 c 0.35359,-0.06811 0.93219,-0.06811 1.28578,0 0.35358,0.0681 0.0643,0.123825 -0.64289,0.123825 -0.70718,0 -0.99647,-0.05572 -0.64289,-0.123825 z M 28.138597,12.042677 c 5.551042,-0.04339 14.551423,-0.04336 20.000848,4.9e-5 5.449425,0.04341 0.907663,0.07891 -10.092802,0.07889 -11.000466,-2.8e-5 -15.459086,-0.03555 -9.908046,-0.07893 z M 7.1173847,-0.45794779 c 0.00318,-0.62859771 0.061685,-0.85210891 0.1300279,-0.4966898 0.068343,0.3554181 0.065749,0.8697255 -0.00577,1.1429052 -0.071515,0.2731796 -0.1274331,-0.0176134 -0.1242611,-0.6462154 z"
         id="path1462" />
      <path
         style="fill:#657187;stroke-width:0.285726"
         d="m 191.05312,83.545605 c 6.99183,-6.993156 12.7767,-12.714823 12.85528,-12.714823 0.0786,0 -5.57772,5.721667 -12.56955,12.714823 -6.99184,6.993157 -12.7767,12.714827 -12.85528,12.714827 -0.0786,0 5.57772,-5.72167 12.56955,-12.714827 z m -62.21692,-9.19734 c 0.27501,-0.07181 0.72503,-0.07181 1.00004,0 0.27501,0.07192 0.05,0.130669 -0.50002,0.130669 -0.55002,0 -0.77503,-0.05875 -0.50002,-0.130669 z m -44.660126,-76.0205497 -0.984661,-1.0714745 1.071473,0.9846615 c 0.58931,0.5415634 1.071474,1.02372631 1.071474,1.07147341 0,0.2181863 -0.241787,0.012646 -1.158286,-0.98466041 z M 59.118964,-12.798277 c 0.275012,-0.07187 0.72503,-0.07187 1.000043,0 0.275011,0.07187 0.05,0.130669 -0.500022,0.130669 -0.550023,0 -0.775032,-0.0588 -0.500021,-0.130669 z"
         id="path1460" />
      <path
         style="fill:#1d2f4f;stroke-width:0.285726"
         d="m 167.50764,99.399823 c -3.3837,-0.59742 -7.08102,-3.287296 -8.57738,-6.240237 -1.40068,-2.764096 -1.59285,-4.169492 -1.59285,-11.648435 V 74.596547 L 142.26534,74.457714 C 124.98533,74.298535 123.46911,74.122142 117.33571,71.557364 110.20082,68.573797 106.34555,65.226507 97.905436,54.687242 66.308586,15.231904 65.857812,14.695618 63.190565,13.386835 60.380278,12.007859 59.724699,11.971149 37.909512,11.971149 c -22.375939,0 -21.404942,0.06501 -24.73481,-1.656042 C 6.6091803,6.9216993 5.3000124,-3.5672742 10.744346,-9.1567633 c 3.616965,-3.7134017 4.345308,-3.8011097 30.315471,-3.6506397 24.810496,0.143753 26.128571,0.310387 33.744611,4.266083 6.999896,3.635676 7.836859,4.5291628 29.251672,31.227208 19.06039,23.762762 19.05133,23.751988 21.06619,25.046305 2.98514,1.917613 3.33791,1.954837 18.52571,1.954837 h 13.68941 v -6.940265 c 0,-5.313542 0.1027,-7.334407 0.43799,-8.621833 2.03697,-7.820454 10.88682,-11.587859 18.02826,-7.674685 1.39334,0.763487 24.55638,23.479299 28.10759,27.564892 3.50584,4.033399 4.10072,9.133267 1.64488,14.101243 -0.92431,1.869798 -26.12115,27.537507 -28.75925,29.296681 -2.61244,1.74207 -6.25844,2.52186 -9.28924,1.98676 z"
         id="path1458" />
    </g>
  </g>
</svg>
