<?xml version="1.0" encoding="UTF-8" standalone="no"?>
<!-- Created with Inkscape (http://www.inkscape.org/) -->

<svg
   width="200mm"
   height="200mm"
   viewBox="0 0 200 200"
   version="1.1"
   id="svg5"
   inkscape:version="1.1.2 (b8e25be833, 2022-02-05)"
   sodipodi:docname="save.svg"
   xmlns:inkscape="http://www.inkscape.org/namespaces/inkscape"
   xmlns:sodipodi="http://sodipodi.sourceforge.net/DTD/sodipodi-0.dtd"
   xmlns="http://www.w3.org/2000/svg"
   xmlns:svg="http://www.w3.org/2000/svg">
  <sodipodi:namedview
     id="namedview7"
     pagecolor="#ffffff"
     bordercolor="#666666"
     borderopacity="1.0"
     inkscape:pageshadow="2"
     inkscape:pageopacity="0.0"
     inkscape:pagecheckerboard="0"
     inkscape:document-units="mm"
     showgrid="false"
     inkscape:zoom="0.64052329"
     inkscape:cx="67.13261"
     inkscape:cy="270.09166"
     inkscape:window-width="1920"
     inkscape:window-height="1137"
     inkscape:window-x="-1928"
     inkscape:window-y="-4"
     inkscape:window-maximized="1"
     inkscape:current-layer="g837"
     inkscape:snap-global="false" />
  <defs
     id="defs2" />
  <g
     inkscape:label="Шар 1"
     inkscape:groupmode="layer"
     id="layer1">
    <g
       id="g1456"
       transform="translate(-7.0100934,38.555514)">
      <g
         id="g837"
         transform="translate(16.648972,16.064797)">
        <g
           id="g1017"
           transform="matrix(0.93121476,0,0,0.93121476,13.679255,1.1162147)">
          <path
             style="fill:#a3aab7;stroke-width:0.264583"
             d="M 22.019559,129.54781 C 12.704723,128.44495 4.6675669,121.69309 2.2394418,112.93091 1.131837,108.93398 1.1218249,108.29515 1.2041199,46.872462 l 0.079052,-59.002083 0.709677,-2.569096 c 1.8163434,-6.575327 6.0020156,-11.821463 11.8682601,-14.875155 2.704075,-1.407614 5.203134,-2.137804 8.665887,-2.532048 1.806966,-0.205729 16.024378,-0.267674 47.944715,-0.208894 l 45.376039,0.08356 1.98438,0.565082 c 1.0914,0.310795 2.68062,0.873433 3.5316,1.250307 3.62786,1.606675 4.91192,2.748852 20.2389,18.002595 8.19883,8.1596541 15.66989,15.7835778 16.60237,16.9420532 1.98016,2.4600826 3.55873,5.5015478 4.39971,8.4770148 l 0.59825,2.116666 0.0831,45.376041 c 0.0845,46.134065 0.0479,48.255155 -0.89625,51.990625 -0.60863,2.40786 -2.7985,6.66518 -4.4555,8.66191 -3.09827,3.73351 -7.41096,6.48535 -12.26541,7.82633 l -2.5691,0.70967 -59.663536,0.0342 c -32.814947,0.0188 -60.452477,-0.0592 -61.416735,-0.1734 z m 64.856318,-23.55022 c 1.655104,-0.3457 4.628057,-1.35966 5.894054,-2.01023 5.519473,-2.83638 10.132389,-8.721197 11.897889,-15.178441 0.76207,-2.787226 0.75099,-7.774871 -0.0237,-10.658416 -1.08674,-4.045217 -3.19421,-7.758041 -6.245627,-11.00324 -7.663503,-8.150175 -21.648697,-8.957448 -30.382069,-1.753757 -3.830307,3.159416 -6.869154,7.891209 -8.156051,12.699788 -0.795689,2.973155 -0.805502,7.899662 -0.02148,10.783689 1.309436,4.81674 4.779798,10.101395 8.474054,12.904257 2.942563,2.23255 6.901137,3.93553 10.486908,4.51148 1.673693,0.26883 6.161042,0.10485 8.075996,-0.29513 z M 107.37288,36.938218 c 4.30838,-0.622636 7.63476,-3.398176 9.04909,-7.550605 0.38316,-1.124945 0.45721,-2.996004 0.54837,-13.856084 0.1163,-13.8557921 -0.0147,-15.8336372 -1.21979,-18.4087474 -0.83512,-1.7845986 -2.953,-4.0811819 -4.4816,-4.8597343 -2.77425,-1.4129913 -0.87826,-1.3499597 -40.606101,-1.3499597 -40.083797,0 -37.991422,-0.075904 -40.773701,1.4791399 -1.436304,0.802767 -3.360473,2.8301235 -4.147822,4.3702578 -1.262867,2.47029547 -1.300639,2.97200102 -1.303973,17.3197677 -0.0033,14.399752 0.02516,14.768531 1.341361,17.35279 1.299075,2.550628 4.888135,5.058098 7.86479,5.494671 2.225804,0.326451 71.474046,0.334436 73.729376,0.0085 z"
             id="path1021" />
          <path
             style="fill:#1d2f4f;stroke-width:0.264583"
             d="m 78.799881,106.29272 c -3.58577,-0.57595 -7.544344,-2.27893 -10.486908,-4.51148 -3.694255,-2.802862 -7.164617,-8.087517 -8.474053,-12.904257 -0.784027,-2.884027 -0.774213,-7.810534 0.02148,-10.783689 1.286896,-4.808579 4.325744,-9.540372 8.156051,-12.699788 8.733371,-7.203691 22.718566,-6.396418 30.382069,1.753757 3.05142,3.245199 5.15889,6.958023 6.24563,11.00324 0.77466,2.883545 0.78574,7.87119 0.0237,10.658416 -1.7655,6.457244 -6.378419,12.342061 -11.897892,15.178441 -1.265997,0.65057 -4.23895,1.66453 -5.894054,2.01023 -1.914954,0.39998 -6.402303,0.56396 -8.075996,0.29513 z"
             id="path1019" />
        </g>
      </g>
    </g>
  </g>
</svg>
