<?xml version="1.0" encoding="UTF-8" standalone="no"?>
<!-- Created with Inkscape (http://www.inkscape.org/) -->

<svg
   width="200mm"
   height="200mm"
   viewBox="0 0 200 200"
   version="1.1"
   id="svg5"
   inkscape:version="1.1.2 (b8e25be833, 2022-02-05)"
   sodipodi:docname="user.svg"
   xmlns:inkscape="http://www.inkscape.org/namespaces/inkscape"
   xmlns:sodipodi="http://sodipodi.sourceforge.net/DTD/sodipodi-0.dtd"
   xmlns="http://www.w3.org/2000/svg"
   xmlns:svg="http://www.w3.org/2000/svg">
  <sodipodi:namedview
     id="namedview7"
     pagecolor="#ffffff"
     bordercolor="#666666"
     borderopacity="1.0"
     inkscape:pageshadow="2"
     inkscape:pageopacity="0.0"
     inkscape:pagecheckerboard="0"
     inkscape:document-units="mm"
     showgrid="false"
     inkscape:zoom="0.64052329"
     inkscape:cx="410.60178"
     inkscape:cy="376.25486"
     inkscape:window-width="1920"
     inkscape:window-height="1137"
     inkscape:window-x="-1928"
     inkscape:window-y="-4"
     inkscape:window-maximized="1"
     inkscape:current-layer="g837"
     inkscape:snap-global="false" />
  <defs
     id="defs2" />
  <g
     inkscape:label="Шар 1"
     inkscape:groupmode="layer"
     id="layer1">
    <g
       id="g1456"
       transform="translate(-7.0100934,38.555514)">
      <g
         id="g837"
         transform="translate(16.648972,16.064797)">
        <path
           style="fill:#b7bdc7;stroke-width:0.264583"
           d="m -121.21376,75.546029 -0.50402,-0.595313 0.59531,0.504029 c 0.55945,0.473662 0.71576,0.686596 0.50403,0.686596 -0.0502,0 -0.3181,-0.26789 -0.59532,-0.595312 z m -3.50496,-8.400521 c 0,-0.363802 0.0601,-0.51263 0.13346,-0.330729 0.0734,0.181901 0.0734,0.479557 0,0.661458 -0.0734,0.181901 -0.13346,0.03307 -0.13346,-0.330729 z M 83.752068,-2.3296672 c 0.0127,-0.3082264 0.07539,-0.3709194 0.159851,-0.1598533 0.07643,0.1909948 0.06703,0.4192005 -0.02088,0.5071189 -0.08792,0.087918 -0.150453,-0.068352 -0.138965,-0.3472656 z M 54.82545,-14.015168 c 3.237838,-0.04209 8.53612,-0.04209 11.773958,0 3.237839,0.04209 0.588698,0.07653 -5.886979,0.07653 -6.475677,0 -9.124818,-0.03444 -5.886979,-0.07653 z m -5.957888,-24.143494 c 0,-0.509323 0.05445,-0.717683 0.121002,-0.463021 0.06655,0.254661 0.06655,0.67138 0,0.926042 -0.06655,0.254661 -0.121002,0.0463 -0.121002,-0.463021 z m -0.305078,-2.271006 c 0.0127,-0.308227 0.07539,-0.37092 0.159851,-0.159854 0.07643,0.190995 0.06703,0.419198 -0.02088,0.507119 -0.08792,0.08792 -0.150452,-0.06835 -0.138964,-0.347265 z m -6.635472,-12.942537 c -0.642681,-0.654843 -1.10898,-1.190625 -1.03622,-1.190625 0.07276,0 0.658122,0.535782 1.300803,1.190625 0.642681,0.654844 1.10898,1.190626 1.03622,1.190626 -0.07276,0 -0.658122,-0.535782 -1.300803,-1.190626 z m -12.485027,-6.398448 c 0.190995,-0.07643 0.419201,-0.06703 0.507119,0.02088 0.08792,0.08792 -0.06835,0.150453 -0.347265,0.138964 -0.308227,-0.0127 -0.37092,-0.07539 -0.159854,-0.15985 z m -1.995876,-0.267197 c 0.257432,-0.06708 0.614619,-0.06267 0.79375,0.0098 0.179131,0.07248 -0.03149,0.127363 -0.468056,0.12197 -0.436562,-0.0054 -0.583126,-0.06469 -0.325694,-0.131773 z m -45.90716,-0.268359 c 0.329118,-0.06329 0.805368,-0.06088 1.058334,0.0053 0.252965,0.06622 -0.01633,0.118004 -0.598398,0.115067 -0.582083,-0.0029 -0.789054,-0.05712 -0.459936,-0.120407 z m -2.384335,-0.252682 c 0.181901,-0.0734 0.479558,-0.0734 0.661459,0 0.181901,0.0734 0.03307,0.133453 -0.33073,0.133453 -0.363802,0 -0.51263,-0.06005 -0.330729,-0.133453 z m -103.598944,-1.544564 c 0.005,-0.436562 0.0647,-0.583126 0.13177,-0.325694 0.0671,0.257432 0.0627,0.614619 -0.01,0.79375 -0.0725,0.179131 -0.12736,-0.03149 -0.12197,-0.468056 z m 0.23389,-1.874131 c 0.0127,-0.308226 0.0754,-0.370919 0.15985,-0.159853 0.0764,0.190995 0.067,0.4192 -0.0209,0.507119 -0.0879,0.08792 -0.15046,-0.06835 -0.13897,-0.347266 z m 91.775291,-2.425348 -0.9118,-0.992188 0.992188,0.9118 c 0.545703,0.501488 0.992187,0.947973 0.992187,0.992187 0,0.202041 -0.223895,0.01172 -1.072575,-0.911799 z m -87.298261,-7.838958 c 0,-0.05494 0.20836,-0.263301 0.46302,-0.46302 0.41965,-0.329108 0.429,-0.31975 0.0999,0.09989 -0.34565,0.440729 -0.56292,0.580887 -0.56292,0.363126 z m 75.513406,-3.670418 -0.504028,-0.595312 0.595312,0.504028 c 0.559446,0.473662 0.715762,0.686597 0.504029,0.686597 -0.05021,0 -0.318098,-0.267891 -0.595313,-0.595313 z m -1.46382,-1.190625 c -0.329107,-0.419644 -0.319749,-0.429002 0.0999,-0.09989 0.44073,0.345643 0.580887,0.562915 0.363125,0.562915 -0.05494,0 -0.2633,-0.208359 -0.463021,-0.463021 z m -60.340856,-3.686469 c 0.19099,-0.07643 0.41919,-0.06703 0.50711,0.02089 0.0879,0.08792 -0.0683,0.150453 -0.34726,0.138965 -0.30823,-0.01269 -0.37092,-0.07539 -0.15985,-0.159853 z m 1.5875,-0.264584 c 0.19099,-0.07643 0.41919,-0.06703 0.50711,0.02089 0.0879,0.08792 -0.0683,0.150453 -0.34726,0.138965 -0.30823,-0.0127 -0.37092,-0.07539 -0.15985,-0.159853 z m 48.947913,0 c 0.190995,-0.07643 0.419201,-0.06703 0.507119,0.02089 0.08792,0.08792 -0.06835,0.150453 -0.347266,0.138965 -0.308226,-0.0127 -0.370919,-0.07539 -0.159853,-0.159853 z m -35.735287,-0.282206 c 6.293776,-0.03951 16.592682,-0.03951 22.886459,0 6.293776,0.03951 1.144323,0.07184 -11.44323,0.07184 -12.587552,0 -17.737006,-0.03233 -11.443229,-0.07184 z"
           id="path847" />
        <path
           style="fill:#909aa9;stroke-width:0.264583"
           d="m -42.276636,-14.015422 c 16.771276,-0.03761 44.2151832,-0.03761 60.98646,0 16.771276,0.03761 3.049323,0.06838 -30.49323,0.06838 -33.542553,0 -47.264507,-0.03077 -30.49323,-0.06838 z"
           id="path843" />
        <g
           id="g1025"
           transform="translate(221.82059,29.741307)">
          <path
             style="fill:#a3aab7;stroke-width:0.221435"
             d="m -161.14701,94.071751 c 16.48182,-0.0313 43.38619,-0.0313 59.78748,9e-6 16.4013,0.0313 2.916175,0.05699 -29.96694,0.05699 -32.88312,-8e-6 -46.30236,-0.02561 -29.82054,-0.05699 z m -36.52753,-3.985832 c -0.27544,-0.351214 -0.26761,-0.359047 0.0836,-0.08361 0.21314,0.167149 0.38752,0.34153 0.38752,0.38751 0,0.182248 -0.18184,0.06495 -0.47112,-0.303902 z m 132.22502,0.303902 c 0,-0.04595 0.174373,-0.220361 0.387511,-0.38751 0.351205,-0.275439 0.359039,-0.267606 0.08361,0.08361 -0.289274,0.368856 -0.471111,0.48615 -0.471111,0.303902 z m 1.01069,-1.531346 c 0.08319,-0.218386 0.206971,-0.341279 0.275155,-0.273104 0.06821,0.06821 1.42e-4,0.24685 -0.151198,0.39706 -0.218688,0.217064 -0.244122,0.19163 -0.123957,-0.123956 z m -134.71434,-3.145899 c 0.004,-0.365375 0.0541,-0.488034 0.11028,-0.272585 0.0562,0.215448 0.0525,0.514388 -0.008,0.664305 -0.0607,0.149918 -0.10659,-0.02636 -0.10208,-0.39172 z m 135.518294,0 c 0.0042,-0.365375 0.05415,-0.488034 0.11029,-0.272585 0.05616,0.215448 0.05248,0.514388 -0.0084,0.664305 -0.06068,0.149918 -0.10659,-0.02636 -0.102079,-0.39172 z m 0.02544,-1.992925 c 0.0017,-0.730732 0.0426,-1.002973 0.09186,-0.604976 0.0493,0.397997 0.04829,0.995868 -0.0025,1.328611 -0.05055,0.332742 -0.09085,0.0067 -0.0896,-0.723635 z M -199.13,83.608935 c 0,-0.669838 0.0415,-0.943862 0.0923,-0.608943 0.0507,0.334919 0.0507,0.882976 0,1.217894 -0.0507,0.334919 -0.0923,0.06093 -0.0923,-0.608951 z m 0.20645,-3.100086 c 0,-0.426269 0.0456,-0.60065 0.10127,-0.387511 0.0557,0.21313 0.0557,0.561891 0,0.775021 -0.0557,0.21313 -0.10127,0.03875 -0.10127,-0.38751 z m 135.075435,0 c 0,-0.426269 0.04561,-0.60065 0.101268,-0.387511 0.05566,0.21313 0.05566,0.561891 0,0.775021 -0.05574,0.21313 -0.101268,0.03875 -0.101268,-0.38751 z M -198.71851,78.515932 c 0,-0.30448 0.0502,-0.42903 0.11169,-0.276794 0.0614,0.152236 0.0614,0.401345 0,0.553589 -0.0614,0.152236 -0.11169,0.0277 -0.11169,-0.276795 z m 134.632559,0 c 0,-0.30448 0.0503,-0.42903 0.111687,-0.276794 0.06143,0.152236 0.06143,0.401345 0,0.553589 -0.06143,0.152236 -0.111687,0.0277 -0.111687,-0.276795 z M -198.51456,76.836711 c 0.0106,-0.257956 0.0631,-0.310431 0.13378,-0.133782 0.0639,0.159843 0.0561,0.350837 -0.0175,0.424419 -0.0736,0.07357 -0.12591,-0.05724 -0.11631,-0.290637 z m 134.189694,0 c 0.01063,-0.257956 0.0631,-0.310431 0.133782,-0.133782 0.06394,0.159843 0.05607,0.350837 -0.01749,0.424419 -0.07356,0.07357 -0.125923,-0.05724 -0.116307,-0.290637 z M -198.29312,75.5081 c 0.0106,-0.257956 0.0631,-0.310431 0.13378,-0.133782 0.0639,0.159843 0.0561,0.350837 -0.0175,0.424419 -0.0736,0.07357 -0.12591,-0.05716 -0.1163,-0.290637 z m 133.746821,0 c 0.01063,-0.257956 0.0631,-0.310431 0.133782,-0.133782 0.06394,0.159843 0.05607,0.350837 -0.01749,0.424419 -0.07357,0.07357 -0.125915,-0.05716 -0.116299,-0.290637 z M -197.85025,73.293751 c 0.0106,-0.257964 0.0631,-0.31043 0.13378,-0.133782 0.0639,0.159844 0.0561,0.350837 -0.0175,0.424419 -0.0736,0.07357 -0.12592,-0.05725 -0.11631,-0.290637 z m 132.861078,0 c 0.01063,-0.257964 0.0631,-0.31043 0.133782,-0.133782 0.06394,0.159844 0.05607,0.350837 -0.01749,0.424419 -0.07357,0.07357 -0.125923,-0.05725 -0.116306,-0.290637 z M -186.79598,50.531496 c 0,-0.04598 0.17438,-0.220361 0.38751,-0.387512 0.35122,-0.275436 0.35905,-0.267604 0.0836,0.08361 -0.28927,0.368856 -0.47112,0.486156 -0.47112,0.303906 z m 110.467887,-0.303907 c -0.275439,-0.351209 -0.267605,-0.359041 0.08361,-0.08361 0.21313,0.167151 0.38751,0.34153 0.38751,0.387512 0,0.182249 -0.181837,0.06495 -0.471119,-0.303907 z M -185.02449,48.511467 c 0.28603,-0.304473 0.56989,-0.553588 0.63078,-0.553588 0.0609,0 -0.12331,0.249115 -0.40935,0.553588 -0.28604,0.304473 -0.56989,0.553588 -0.63079,0.553588 -0.0609,0 0.12331,-0.249115 0.40936,-0.553588 z m 107.157837,-0.05536 -0.536826,-0.608947 0.608943,0.536828 c 0.569156,0.501748 0.710495,0.681065 0.536834,0.681065 -0.03967,0 -0.313694,-0.274026 -0.608951,-0.608946 z M -182.14584,45.63281 c 0.41315,-0.426262 0.80101,-0.775023 0.8619,-0.775023 0.0609,0 -0.22731,0.348761 -0.64046,0.775023 -0.41315,0.426262 -0.80101,0.775023 -0.8619,0.775023 -0.0609,0 0.22731,-0.348761 0.64046,-0.775023 z m 101.514078,0.05536 -0.650371,-0.719665 0.719659,0.650376 c 0.670834,0.606241 0.821446,0.788953 0.650379,0.788953 -0.03808,0 -0.361959,-0.323849 -0.719667,-0.719664 z m -99.631878,-1.716127 c 0.22044,-0.243578 0.45061,-0.44287 0.51151,-0.44287 0.0609,0 -0.0696,0.199292 -0.29008,0.44287 -0.22043,0.243579 -0.45061,0.442871 -0.51151,0.442871 -0.0609,0 0.0696,-0.199292 0.29008,-0.442871 z m 97.513925,-0.166073 c -0.27543,-0.351209 -0.267596,-0.359041 0.08361,-0.08361 0.21313,0.16715 0.387511,0.34153 0.387511,0.387511 0,0.18225 -0.181838,0.06495 -0.47112,-0.303906 z m -96.517465,-0.581834 c 0,-0.04598 0.17437,-0.220361 0.38751,-0.387512 0.35121,-0.275436 0.35904,-0.267604 0.0836,0.08361 -0.28928,0.368855 -0.47112,0.486157 -0.47112,0.303906 z m 22.10199,-10.696547 c 0.15985,-0.06397 0.35084,-0.0561 0.42442,0.01748 0.0736,0.07358 -0.0572,0.125917 -0.29064,0.116302 -0.25795,-0.01063 -0.31043,-0.0631 -0.13378,-0.133782 z m 1.10718,-0.221435 c 0.15984,-0.06396 0.35084,-0.0561 0.42442,0.01747 0.0736,0.07358 -0.0572,0.125917 -0.29064,0.116302 -0.25796,-0.01063 -0.31043,-0.0631 -0.13378,-0.133782 z m 1.10717,-0.221434 c 0.15985,-0.06397 0.35084,-0.0561 0.42442,0.01747 0.0736,0.07358 -0.0572,0.125918 -0.29063,0.116303 -0.25796,-0.01063 -0.31043,-0.06309 -0.13379,-0.133783 z m 1.32861,-0.221436 c 0.15985,-0.06397 0.35084,-0.0561 0.42442,0.01748 0.0736,0.07358 -0.0572,0.125917 -0.29063,0.116301 -0.25796,-0.01063 -0.31043,-0.0631 -0.13379,-0.133781 z m 44.05176,0.0046 c 0.15223,-0.06143 0.40135,-0.06143 0.55359,0 0.15223,0.06143 0.0277,0.111689 -0.2768,0.111689 -0.30447,0 -0.42903,-0.05026 -0.27679,-0.111689 z m -42.51555,-0.221432 c 0.15224,-0.06143 0.40135,-0.06143 0.55359,0 0.15224,0.06143 0.0277,0.111689 -0.27679,0.111689 -0.30448,0 -0.42903,-0.05026 -0.2768,-0.111689 z m 40.74407,0 c 0.15224,-0.06143 0.40135,-0.06143 0.55358,0 0.15224,0.06143 0.0277,0.111689 -0.27679,0.111689 -0.30447,0 -0.42903,-0.05026 -0.27679,-0.111689 z m -38.75115,-0.221435 c 0.15223,-0.06143 0.40135,-0.06143 0.55359,0 0.15223,0.06143 0.0277,0.111689 -0.2768,0.111689 -0.30447,0 -0.42903,-0.05026 -0.27679,-0.111689 z m 36.64751,-0.0059 c 0.21314,-0.0557 0.56189,-0.0557 0.77503,0 0.21313,0.0557 0.0387,0.101269 -0.38752,0.101269 -0.42626,0 -0.60064,-0.04557 -0.38751,-0.101269 z M -147.65731,31.1901 c 0.39581,-0.04912 1.04351,-0.04912 1.43932,0 0.39582,0.04912 0.072,0.08931 -0.71966,0.08931 -0.79163,0 -1.11548,-0.04019 -0.71966,-0.08931 z m 30.77948,0.0039 c 0.27402,-0.05279 0.72244,-0.05279 0.99646,0 0.27402,0.05278 0.0498,0.09596 -0.49824,0.09596 -0.54804,0 -0.77225,-0.04319 -0.49822,-0.09596 z m -20.20596,-15.038866 c -9.52508,-1.475143 -17.77764,-6.096825 -23.90081,-13.3851723 -4.75475,-5.6595239 -7.81589,-12.5691153 -8.75598,-19.7639577 -0.32467,-2.48481 -0.27169,-8.302221 0.0992,-10.889657 2.29437,-16.007252 14.56475,-28.840071 30.8564,-32.27077 2.07287,-0.436505 3.00929,-0.497506 7.56924,-0.493082 5.81142,0.0056 7.45311,0.246065 12.12081,1.775089 12.13039,3.973621 22.019785,14.423704 25.208125,26.637314 1.483,5.680954 1.61289,13.498542 0.31511,18.966169 -2.8891,12.1720171 -11.648875,22.3762712 -23.209715,27.03696 -4.81115,1.93959 -9.22067,2.758225 -14.65576,2.720865 -2.00953,-0.01382 -4.55049,-0.164004 -5.6466,-0.333758 z"
             id="path1029" />
          <path
             style="fill:#1d2f4f;stroke-width:0.221435"
             d="m -192.89588,93.603813 c -1.51542,-0.517318 -2.53357,-1.177145 -3.59767,-2.331568 -2.00338,-2.173415 -2.53365,-3.633732 -2.50853,-6.908375 0.10619,-13.845924 6.09422,-28.044785 15.85337,-37.591614 7.60938,-7.443824 17.04991,-12.387291 27.48192,-14.390709 5.72025,-1.098549 6.64258,-1.142021 24.2296,-1.142021 17.96986,0 19.48109,0.08034 25.57576,1.359764 18.517325,3.887239 33.558237,17.411279 39.491926,35.509188 1.830847,5.584133 3.096513,14.202678 2.669231,18.176141 -0.350284,3.257402 -3.033007,6.403477 -6.307373,7.396784 -0.953688,0.289307 -8.560573,0.328567 -61.429544,0.317059 -56.50608,-0.0123 -60.4121,-0.03741 -61.45869,-0.394649 z"
             id="path1027" />
        </g>
      </g>
    </g>
  </g>
</svg>
