<?xml version="1.0" encoding="UTF-8" standalone="no"?>
<!-- Created with Inkscape (http://www.inkscape.org/) -->

<svg
   width="200mm"
   height="200mm"
   viewBox="0 0 200 200"
   version="1.1"
   id="svg5"
   inkscape:version="1.1.2 (b8e25be833, 2022-02-05)"
   sodipodi:docname="user-card.svg"
   xmlns:inkscape="http://www.inkscape.org/namespaces/inkscape"
   xmlns:sodipodi="http://sodipodi.sourceforge.net/DTD/sodipodi-0.dtd"
   xmlns="http://www.w3.org/2000/svg"
   xmlns:svg="http://www.w3.org/2000/svg">
  <sodipodi:namedview
     id="namedview7"
     pagecolor="#ffffff"
     bordercolor="#666666"
     borderopacity="1.0"
     inkscape:pageshadow="2"
     inkscape:pageopacity="0.0"
     inkscape:pagecheckerboard="0"
     inkscape:document-units="mm"
     showgrid="false"
     inkscape:zoom="0.64052329"
     inkscape:cx="413.72422"
     inkscape:cy="376.25486"
     inkscape:window-width="1920"
     inkscape:window-height="1137"
     inkscape:window-x="-1928"
     inkscape:window-y="-4"
     inkscape:window-maximized="1"
     inkscape:current-layer="g837"
     inkscape:snap-global="false" />
  <defs
     id="defs2" />
  <g
     inkscape:label="Шар 1"
     inkscape:groupmode="layer"
     id="layer1">
    <g
       id="g1456"
       transform="translate(-7.0100934,38.555514)">
      <g
         id="g837"
         transform="translate(16.648972,16.064797)">
        <path
           style="fill:#b7bdc7;stroke-width:0.264583"
           d="m -121.21376,75.546029 -0.50402,-0.595313 0.59531,0.504029 c 0.55945,0.473662 0.71576,0.686596 0.50403,0.686596 -0.0502,0 -0.3181,-0.26789 -0.59532,-0.595312 z m -3.50496,-8.400521 c 0,-0.363802 0.0601,-0.51263 0.13346,-0.330729 0.0734,0.181901 0.0734,0.479557 0,0.661458 -0.0734,0.181901 -0.13346,0.03307 -0.13346,-0.330729 z M 83.752068,-2.3296672 c 0.0127,-0.3082264 0.07539,-0.3709194 0.159851,-0.1598533 0.07643,0.1909948 0.06703,0.4192005 -0.02088,0.5071189 -0.08792,0.087918 -0.150453,-0.068352 -0.138965,-0.3472656 z M 54.82545,-14.015168 c 3.237838,-0.04209 8.53612,-0.04209 11.773958,0 3.237839,0.04209 0.588698,0.07653 -5.886979,0.07653 -6.475677,0 -9.124818,-0.03444 -5.886979,-0.07653 z m -5.957888,-24.143494 c 0,-0.509323 0.05445,-0.717683 0.121002,-0.463021 0.06655,0.254661 0.06655,0.67138 0,0.926042 -0.06655,0.254661 -0.121002,0.0463 -0.121002,-0.463021 z m -0.305078,-2.271006 c 0.0127,-0.308227 0.07539,-0.37092 0.159851,-0.159854 0.07643,0.190995 0.06703,0.419198 -0.02088,0.507119 -0.08792,0.08792 -0.150452,-0.06835 -0.138964,-0.347265 z m -6.635472,-12.942537 c -0.642681,-0.654843 -1.10898,-1.190625 -1.03622,-1.190625 0.07276,0 0.658122,0.535782 1.300803,1.190625 0.642681,0.654844 1.10898,1.190626 1.03622,1.190626 -0.07276,0 -0.658122,-0.535782 -1.300803,-1.190626 z m -12.485027,-6.398448 c 0.190995,-0.07643 0.419201,-0.06703 0.507119,0.02088 0.08792,0.08792 -0.06835,0.150453 -0.347265,0.138964 -0.308227,-0.0127 -0.37092,-0.07539 -0.159854,-0.15985 z m -1.995876,-0.267197 c 0.257432,-0.06708 0.614619,-0.06267 0.79375,0.0098 0.179131,0.07248 -0.03149,0.127363 -0.468056,0.12197 -0.436562,-0.0054 -0.583126,-0.06469 -0.325694,-0.131773 z m -45.90716,-0.268359 c 0.329118,-0.06329 0.805368,-0.06088 1.058334,0.0053 0.252965,0.06622 -0.01633,0.118004 -0.598398,0.115067 -0.582083,-0.0029 -0.789054,-0.05712 -0.459936,-0.120407 z m -2.384335,-0.252682 c 0.181901,-0.0734 0.479558,-0.0734 0.661459,0 0.181901,0.0734 0.03307,0.133453 -0.33073,0.133453 -0.363802,0 -0.51263,-0.06005 -0.330729,-0.133453 z m -103.598944,-1.544564 c 0.005,-0.436562 0.0647,-0.583126 0.13177,-0.325694 0.0671,0.257432 0.0627,0.614619 -0.01,0.79375 -0.0725,0.179131 -0.12736,-0.03149 -0.12197,-0.468056 z m 0.23389,-1.874131 c 0.0127,-0.308226 0.0754,-0.370919 0.15985,-0.159853 0.0764,0.190995 0.067,0.4192 -0.0209,0.507119 -0.0879,0.08792 -0.15046,-0.06835 -0.13897,-0.347266 z m 91.775291,-2.425348 -0.9118,-0.992188 0.992188,0.9118 c 0.545703,0.501488 0.992187,0.947973 0.992187,0.992187 0,0.202041 -0.223895,0.01172 -1.072575,-0.911799 z m -87.298261,-7.838958 c 0,-0.05494 0.20836,-0.263301 0.46302,-0.46302 0.41965,-0.329108 0.429,-0.31975 0.0999,0.09989 -0.34565,0.440729 -0.56292,0.580887 -0.56292,0.363126 z m 75.513406,-3.670418 -0.504028,-0.595312 0.595312,0.504028 c 0.559446,0.473662 0.715762,0.686597 0.504029,0.686597 -0.05021,0 -0.318098,-0.267891 -0.595313,-0.595313 z m -1.46382,-1.190625 c -0.329107,-0.419644 -0.319749,-0.429002 0.0999,-0.09989 0.44073,0.345643 0.580887,0.562915 0.363125,0.562915 -0.05494,0 -0.2633,-0.208359 -0.463021,-0.463021 z m -60.340856,-3.686469 c 0.19099,-0.07643 0.41919,-0.06703 0.50711,0.02089 0.0879,0.08792 -0.0683,0.150453 -0.34726,0.138965 -0.30823,-0.01269 -0.37092,-0.07539 -0.15985,-0.159853 z m 1.5875,-0.264584 c 0.19099,-0.07643 0.41919,-0.06703 0.50711,0.02089 0.0879,0.08792 -0.0683,0.150453 -0.34726,0.138965 -0.30823,-0.0127 -0.37092,-0.07539 -0.15985,-0.159853 z m 48.947913,0 c 0.190995,-0.07643 0.419201,-0.06703 0.507119,0.02089 0.08792,0.08792 -0.06835,0.150453 -0.347266,0.138965 -0.308226,-0.0127 -0.370919,-0.07539 -0.159853,-0.159853 z m -35.735287,-0.282206 c 6.293776,-0.03951 16.592682,-0.03951 22.886459,0 6.293776,0.03951 1.144323,0.07184 -11.44323,0.07184 -12.587552,0 -17.737006,-0.03233 -11.443229,-0.07184 z"
           id="path847" />
        <path
           style="fill:#909aa9;stroke-width:0.264583"
           d="m -42.276636,-14.015422 c 16.771276,-0.03761 44.2151832,-0.03761 60.98646,0 16.771276,0.03761 3.049323,0.06838 -30.49323,0.06838 -33.542553,0 -47.264507,-0.03077 -30.49323,-0.06838 z"
           id="path843" />
        <g
           id="g859"
           transform="matrix(0.74985094,0,0,0.74985094,77.23859,26.895519)">
          <path
             style="fill:#a3aab7;stroke-width:0.264583"
             d="m -66.078835,115.68945 c -7.812571,-1.32446 -14.304451,-6.15031 -17.583366,-13.07089 -0.510979,-1.0785 -1.198838,-2.913398 -1.528572,-4.077565 l -0.599519,-2.116666 -0.08051,-60.325002 c -0.06005,-44.9995784 -0.0021,-60.829129 0.228158,-62.309377 0.893384,-5.743509 3.896958,-10.95124 8.417232,-14.594166 2.021186,-1.628892 5.018728,-3.275166 7.310117,-4.014774 3.767156,-1.215957 4.309007,-1.234811 35.488824,-1.234811 h 29.4663828 v 11.509375 11.509376 H 18.190955 41.341996 v -11.516831 -11.516832 l 30.493228,0.07545 30.493226,0.07545 2.5691,0.707829 c 8.23613,2.269194 14.52052,8.533281 16.67629,16.622417 l 0.59836,2.245225 v 61.515627 61.515627 l -0.73002,2.327431 c -2.59428,8.271057 -8.15238,13.660387 -16.76247,16.253497 -1.47595,0.44451 -5.96999,0.47071 -85.827297,0.50041 -46.348384,0.0172 -84.567446,-0.0191 -84.931248,-0.0808 z M 56.433329,92.257141 c 1.751049,-0.883002 2.178566,-1.882923 2.007928,-4.696354 -0.483508,-7.971976 -6.74837,-15.273698 -14.750785,-17.192097 -2.132296,-0.511169 -3.092508,-0.531177 -25.367226,-0.528539 -24.4597411,0.0029 -24.7813131,0.01704 -28.0263879,1.232413 -6.9873991,2.616994 -12.4367551,10.239224 -12.4499601,17.414264 -0.0037,2.010013 0.641167,3.145949 2.183378,3.846031 1.086186,0.493073 2.205932,0.508143 38.170762,0.513784 l 37.051749,0.0058 1.180542,-0.595313 z M 21.193703,57.792515 C 22.930351,57.602536 26.464166,56.509283 28.245121,55.61102 38.530208,50.423522 43.37035,39.454013 40.27948,28.336811 37.728648,19.162008 27.970687,11.901402 18.190955,11.901402 c -8.451461,0 -17.27674369,5.587908 -20.87545,13.217716 -4.1342759,8.765302 -2.1659744,19.698023 4.7032835,26.123877 4.0812534,3.817816 8.9349335,6.140434 13.9232085,6.66264 1.954392,0.204597 2.443681,0.194058 5.251706,-0.11312 z m 27.87914,-69.462126 c 2.252395,-0.625552 3.746653,-2.801088 3.717425,-5.412314 -0.02125,-1.897705 -0.296551,-2.678279 -1.379749,-3.911976 -1.707002,-1.944166 0.424521,-1.826932 -33.231968,-1.8278 -27.4536632,-7.94e-4 -30.269224,0.03862 -31.220832,0.436139 -2.193227,0.916176 -3.350025,2.694811 -3.363368,5.171345 -0.01339,2.486933 1.10117,4.393076 3.111188,5.320761 1.00915,0.465751 2.46009,0.488653 31.220833,0.492786 19.949709,0.0029 30.495665,-0.08819 31.146471,-0.268941 z M -4.8987029,-59.282968 c 0,-0.509323 0.054451,-0.717682 0.1210019,-0.463021 0.066548,0.254662 0.066548,0.67138 0,0.926042 -0.066551,0.254661 -0.1210019,0.0463 -0.1210019,-0.463021 z m 46.0374989,0 c 0,-0.509323 0.05445,-0.717682 0.121002,-0.463021 0.06655,0.254662 0.06655,0.67138 0,0.926042 -0.06655,0.254661 -0.121002,0.0463 -0.121002,-0.463021 z m -43.1884656,-6.449895 c 0,-0.05494 0.2083593,-0.263302 0.4630208,-0.463021 0.419645,-0.329107 0.4290033,-0.319749 0.099896,0.0999 -0.3456438,0.440729 -0.5629169,0.580887 -0.5629169,0.363126 z m 13.9750606,-3.537943 c 3.538943,-0.0417 9.253943,-0.04166 12.7,9.4e-5 3.44606,0.04175 0.550564,0.07587 -6.434436,0.07582 -6.985,-5.1e-5 -9.8045031,-0.03421 -6.265564,-0.07591 z"
             id="path863" />
          <path
             style="fill:#1d2f4f;stroke-width:0.264583"
             d="m -19.969724,92.332859 c -1.542211,-0.700082 -2.187077,-1.836018 -2.183378,-3.846031 0.0132,-7.17504 5.462561,-14.79727 12.4499601,-17.414264 3.2450748,-1.215377 3.5666468,-1.229519 28.0263879,-1.232413 22.274718,-0.0026 23.23493,0.01738 25.367226,0.528539 8.002415,1.918399 14.267277,9.220121 14.750785,17.192097 0.170638,2.813431 -0.256879,3.813352 -2.007928,4.696354 l -1.180542,0.595312 -37.051749,-0.0058 c -35.96483,-0.0056 -37.084576,-0.02072 -38.170762,-0.513784 z M 15.941997,57.905635 C 10.953722,57.383429 6.1000419,55.060811 2.0187885,51.242995 -4.8504694,44.817141 -6.8187709,33.88442 -2.684495,25.119118 0.91421131,17.48931 9.739494,11.901402 18.190955,11.901402 c 9.779732,0 19.537693,7.260606 22.088525,16.435409 2.354656,8.469205 0.07286,17.303566 -5.916359,22.906184 -3.879217,3.628821 -8.788331,6.070259 -13.169418,6.54952 -2.808025,0.307178 -3.297314,0.317717 -5.251706,0.11312 z M -4.899076,-41.62203 c 0.096769,-20.578204 0.014579,-19.589648 1.8701173,-22.490338 1.3000778,-2.032348 3.56736643,-3.775321 5.7703137,-4.435918 1.6452188,-0.493349 2.5555786,-0.524266 15.437405,-0.524266 15.242791,0 15.397758,0.01528 18.073259,1.782142 2.662078,1.757997 4.362214,4.445381 4.814715,7.610567 0.154715,1.082203 0.266959,9.083461 0.27002,19.248438 l 0.0052,17.396355 H 18.177757 -4.9864837 Z"
             id="path861" />
        </g>
      </g>
    </g>
  </g>
</svg>
